{
  "accessors": [
    {
      "bufferView": 2,
      "componentType": 5126,
      "count": 43081,
      "max": [
        10.700939178466797,
        5.054574966430664,
        1.703848123550415
      ],
      "min": [
        -10.985475540161133,
        -0.022514820098876953,
        -1.7038484811782837
      ],
      "type": "VEC3"
    },
    {
      "bufferView": 2,
      "byteOffset": 516972,
      "componentType": 5126,
      "count": 43081,
      "max": [
        1.0,
        1.0,
        1.0
      ],
      "min": [
        -1.0,
        -1.0,
        -1.0
      ],
      "type": "VEC3"
    },
    {
      "bufferView": 3,
      "componentType": 5126,
      "count": 43081,
      "max": [
        1.0,
        1.0,
        1.0,
        1.0
      ],
      "min": [
        1.0,
        1.0,
        1.0,
        1.0
      ],
      "type": "VEC4"
    },
    {
      "bufferView": 1,
      "componentType": 5126,
      "count": 43081,
      "max": [
        0.998046875,
        0.998046875
      ],
      "min": [
        0.001953125,
        0.0020142793655395508
      ],
      "type": "VEC2"
    },
    {
      "bufferView": 0,
      "componentType": 5125,
      "count": 123498,
      "type": "SCALAR"
    },
    {
      "bufferView": 2,
      "byteOffset": 1033944,
      "componentType": 5126,
      "count": 65532,
      "max": [
        11.211420059204102,
        5.196035385131836,
        1.7128677368164063
      ],
      "min": [
        -11.269662857055664,
        -0.03239738941192627,
        -1.7994827032089233
      ],
      "type": "VEC3"
    },
    {
      "bufferView": 2,
      "byteOffset": 1820328,
      "componentType": 5126,
      "count": 65532,
      "max": [
        1.0,
        1.0,
        1.0
      ],
      "min": [
        -1.0,
        -1.0,
        -1.0
      ],
      "type": "VEC3"
    },
    {
      "bufferView": 3,
      "byteOffset": 689296,
      "componentType": 5126,
      "count": 65532,
      "max": [
        1.0,
        1.0,
        1.0,
        1.0
      ],
      "min": [
        0.9921568632125854,
        0.9921568632125854,
        0.9921568632125854,
        0.9960784316062927
      ],
      "type": "VEC4"
    },
    {
      "bufferView": 1,
      "byteOffset": 344648,
      "componentType": 5126,
      "count": 65532,
      "max": [
        0.998046875,
        0.998046875
      ],
      "min": [
        0.001953125,
        0.0022617578506469727
      ],
      "type": "VEC2"
    },
    {
      "bufferView": 0,
      "byteOffset": 493992,
      "componentType": 5125,
      "count": 206448,
      "type": "SCALAR"
    },
    {
      "bufferView": 2,
      "byteOffset": 2606712,
      "componentType": 5126,
      "count": 27131,
      "max": [
        10.687702178955078,
        4.7840423583984375,
        1.7994825839996338
      ],
      "min": [
        -0.77638840675354,
        0.31937360763549805,
        -1.7193185091018677
      ],
      "type": "VEC3"
    },
    {
      "bufferView": 2,
      "byteOffset": 2932284,
      "componentType": 5126,
      "count": 27131,
      "max": [
        1.0,
        1.0,
        1.0
      ],
      "min": [
        -1.0,
        -1.0,
        -1.0
      ],
      "type": "VEC3"
    },
    {
      "bufferView": 3,
      "byteOffset": 1737808,
      "componentType": 5126,
      "count": 27131,
      "max": [
        1.0,
        1.0,
        1.0,
        1.0
      ],
      "min": [
        0.9921568632125854,
        0.9921568632125854,
        0.9921568632125854,
        0.9960784316062927
      ],
      "type": "VEC4"
    },
    {
      "bufferView": 1,
      "byteOffset": 868904,
      "componentType": 5126,
      "count": 27131,
      "max": [
        0.9972423315048218,
        0.998046875
      ],
      "min": [
        0.001953125,
        0.003098428249359131
      ],
      "type": "VEC2"
    },
    {
      "bufferView": 0,
      "byteOffset": 1319784,
      "componentType": 5125,
      "count": 78204,
      "type": "SCALAR"
    },
    {
      "bufferView": 2,
      "byteOffset": 3257856,
      "componentType": 5126,
      "count": 60288,
      "max": [
        10.12253189086914,
        5.060934066772461,
        1.7564959526062012
      ],
      "min": [
        -10.46895980834961,
        0.08666706085205078,
        -1.7564960718154907
      ],
      "type": "VEC3"
    },
    {
      "bufferView": 2,
      "byteOffset": 3981312,
      "componentType": 5126,
      "count": 60288,
      "max": [
        1.0,
        1.0,
        1.0
      ],
      "min": [
        -1.0,
        -1.0,
        -1.0
      ],
      "type": "VEC3"
    },
    {
      "bufferView": 3,
      "byteOffset": 2171904,
      "componentType": 5126,
      "count": 60288,
      "max": [
        1.0,
        1.0,
        1.0,
        1.0
      ],
      "min": [
        1.0,
        1.0,
        1.0,
        1.0
      ],
      "type": "VEC4"
    },
    {
      "bufferView": 1,
      "byteOffset": 1085952,
      "componentType": 5126,
      "count": 60288,
      "max": [
        0.998046875,
        0.998046875
      ],
      "min": [
        0.001953125,
        0.0025869011878967285
      ],
      "type": "VEC2"
    },
    {
      "bufferView": 0,
      "byteOffset": 1632600,
      "componentType": 5125,
      "count": 173778,
      "type": "SCALAR"
    },
    {
      "bufferView": 2,
      "byteOffset": 4704768,
      "componentType": 5126,
      "count": 271,
      "max": [
        10.374805450439453,
        4.983402252197266,
        1.7971677780151367
      ],
      "min": [
        -10.574695587158203,
        1.5860987901687622,
        -1.7971680164337158
      ],
      "type": "VEC3"
    },
    {
      "bufferView": 2,
      "byteOffset": 4708020,
      "componentType": 5126,
      "count": 271,
      "max": [
        1.0,
        0.9000726938247681,
        1.0
      ],
      "min": [
        -1.0,
        -0.0043692938052117825,
        -1.0
      ],
      "type": "VEC3"
    },
    {
      "bufferView": 3,
      "byteOffset": 3136512,
      "componentType": 5126,
      "count": 271,
      "max": [
        1.0,
        1.0,
        1.0,
        1.0
      ],
      "min": [
        1.0,
        1.0,
        1.0,
        1.0
      ],
      "type": "VEC4"
    },
    {
      "bufferView": 1,
      "byteOffset": 1568256,
      "componentType": 5126,
      "count": 271,
      "max": [
        0.9491477608680725,
        0.9644981622695923
      ],
      "min": [
        0.01574062928557396,
        0.007165014743804932
      ],
      "type": "VEC2"
    },
    {
      "bufferView": 0,
      "byteOffset": 2327712,
      "componentType": 5125,
      "count": 615,
      "type": "SCALAR"
    },
    {
      "bufferView": 2,
      "byteOffset": 4711272,
      "componentType": 5126,
      "count": 200,
      "max": [
        10.36832046508789,
        4.297460556030273,
        0.928424060344696
      ],
      "min": [
        -10.570022583007813,
        1.5773919820785522,
        -0.9284250140190125
      ],
      "type": "VEC3"
    },
    {
      "bufferView": 2,
      "byteOffset": 4713672,
      "componentType": 5126,
      "count": 200,
      "max": [
        0.7152076363563538,
        0.89924156665802,
        0.8992419242858887
      ],
      "min": [
        -0.715208113193512,
        -0.8992418050765991,
        -0.8992422819137573
      ],
      "type": "VEC3"
    },
    {
      "bufferView": 3,
      "byteOffset": 3140848,
      "componentType": 5126,
      "count": 200,
      "max": [
        1.0,
        1.0,
        1.0,
        1.0
      ],
      "min": [
        1.0,
        1.0,
        1.0,
        1.0
      ],
      "type": "VEC4"
    },
    {
      "bufferView": 1,
      "byteOffset": 1570424,
      "componentType": 5126,
      "count": 200,
      "max": [
        0.9956618547439575,
        0.9956642985343933
      ],
      "min": [
        0.0043260566890239716,
        0.004328370094299316
      ],
      "type": "VEC2"
    },
    {
      "bufferView": 0,
      "byteOffset": 2330172,
      "componentType": 5125,
      "count": 330,
      "type": "SCALAR"
    }
  ],
  "asset": {
    "extras": {
      "author": "art.piskov (https://sketchfab.com/art.piskov)",
      "license": "CC-BY-4.0 (http://creativecommons.org/licenses/by/4.0/)",
      "source": "https://sketchfab.com/3d-models/esfdgrhj-77d0a309e93143469203662ce4fa431f",
      "title": "esfdgrhj"
    },
    "generator": "Sketchfab-14.41.0",
    "version": "2.0"
  },
  "bufferViews": [
    {
      "buffer": 0,
      "byteLength": 2331492,
      "name": "floatBufferViews",
      "target": 34963
    },
    {
      "buffer": 0,
      "byteLength": 1572024,
      "byteOffset": 2331492,
      "byteStride": 8,
      "name": "floatBufferViews",
      "target": 34962
    },
    {
      "buffer": 0,
      "byteLength": 4716072,
      "byteOffset": 3903516,
      "byteStride": 12,
      "name": "floatBufferViews",
      "target": 34962
    },
    {
      "buffer": 0,
      "byteLength": 3144048,
      "byteOffset": 8619588,
      "byteStride": 16,
      "name": "floatBufferViews",
      "target": 34962
    }
  ],
  "buffers": [
    {
      "byteLength": 11763636,
      "uri": "scene.bin"
    }
  ],
  "images": [
    {
      "uri": "textures/MAT01_baseColor.png"
    },
    {
      "uri": "textures/MAT02_baseColor.png"
    },
    {
      "uri": "textures/MAT03_baseColor.png"
    },
    {
      "uri": "textures/M_WindowsBack_baseColor.png"
    }
  ],
  "materials": [
    {
      "doubleSided": true,
      "name": "MAT01",
      "pbrMetallicRoughness": {
        "baseColorTexture": {
          "index": 0
        },
        "metallicFactor": 0.0,
        "roughnessFactor": 0.552786
      }
    },
    {
      "doubleSided": true,
      "name": "MAT02",
      "pbrMetallicRoughness": {
        "baseColorTexture": {
          "index": 1
        },
        "metallicFactor": 0.0,
        "roughnessFactor": 0.552786
      }
    },
    {
      "doubleSided": true,
      "name": "MAT03",
      "pbrMetallicRoughness": {
        "baseColorTexture": {
          "index": 2
        },
        "metallicFactor": 0.0,
        "roughnessFactor": 0.552786
      }
    },
    {
      "doubleSided": true,
      "name": "M_GlassTrans",
      "pbrMetallicRoughness": {
        "baseColorFactor": [
          0.03564081245896186,
          0.03564081245896186,
          0.03564081245896186,
          1.0
        ],
        "metallicFactor": 0.222727,
        "roughnessFactor": 0.0
      }
    },
    {
      "doubleSided": true,
      "name": "M_WindowsBack",
      "pbrMetallicRoughness": {
        "baseColorTexture": {
          "index": 3
        },
        "metallicFactor": 0.0,
        "roughnessFactor": 0.5
      }
    }
  ],
  "meshes": [
    {
      "name": "Object_0",
      "primitives": [
        {
          "attributes": {
            "COLOR_0": 2,
            "NORMAL": 1,
            "POSITION": 0,
            "TEXCOORD_0": 3
          },
          "indices": 4,
          "material": 0,
          "mode": 4
        }
      ]
    },
    {
      "name": "Object_1",
      "primitives": [
        {
          "attributes": {
            "COLOR_0": 7,
            "NORMAL": 6,
            "POSITION": 5,
            "TEXCOORD_0": 8
          },
          "indices": 9,
          "material": 1,
          "mode": 4
        }
      ]
    },
    {
      "name": "Object_2",
      "primitives": [
        {
          "attributes": {
            "COLOR_0": 12,
            "NORMAL": 11,
            "POSITION": 10,
            "TEXCOORD_0": 13
          },
          "indices": 14,
          "material": 1,
          "mode": 4
        }
      ]
    },
    {
      "name": "Object_3",
      "primitives": [
        {
          "attributes": {
            "COLOR_0": 17,
            "NORMAL": 16,
            "POSITION": 15,
            "TEXCOORD_0": 18
          },
          "indices": 19,
          "material": 2,
          "mode": 4
        }
      ]
    },
    {
      "name": "Object_4",
      "primitives": [
        {
          "attributes": {
            "COLOR_0": 22,
            "NORMAL": 21,
            "POSITION": 20,
            "TEXCOORD_0": 23
          },
          "indices": 24,
          "material": 3,
          "mode": 4
        }
      ]
    },
    {
      "name": "Object_5",
      "primitives": [
        {
          "attributes": {
            "COLOR_0": 27,
            "NORMAL": 26,
            "POSITION": 25,
            "TEXCOORD_0": 28
          },
          "indices": 29,
          "material": 4,
          "mode": 4
        }
      ]
    }
  ],
  "nodes": [
    {
      "children": [
        1
      ],
      "matrix": [
        0.015384615398943424,
        0.0,
        0.0,
        0.0,
        0.0,
        3.4160708481819456e-18,
        -0.015384615398943424,
        0.0,
        0.0,
        0.015384615398943424,
        3.4160708481819456e-18,
        0.0,
        0.0,
        0.0,
        0.0,
        1.0
      ],
      "name": "Sketchfab_model"
    },
    {
      "children": [
        2
      ],
      "name": "root"
    },
    {
      "children": [
        3
      ],
      "matrix": [
        1.0,
        0.0,
        0.0,
        0.0,
        0.0,
        2.220446049250313e-16,
        1.0,
        0.0,
        0.0,
        -1.0,
        2.220446049250313e-16,
        0.0,
        0.0,
        0.0,
        0.0,
        1.0
      ],
      "name": "GLTF_SceneRootNode"
    },
    {
      "children": [
        4,
        5,
        6,
        7,
        8,
        9
      ],
      "name": "ER791-81_0"
    },
    {
      "mesh": 0,
      "name": "Object_4"
    },
    {
      "mesh": 1,
      "name": "Object_5"
    },
    {
      "mesh": 2,
      "name": "Object_6"
    },
    {
      "mesh": 3,
      "name": "Object_7"
    },
    {
      "mesh": 4,
      "name": "Object_8"
    },
    {
      "mesh": 5,
      "name": "Object_9"
    }
  ],
  "samplers": [
    {
      "magFilter": 9729,
      "minFilter": 9987,
      "wrapS": 10497,
      "wrapT": 10497
    }
  ],
  "scene": 0,
  "scenes": [
    {
      "name": "Sketchfab_Scene",
      "nodes": [
        0
      ]
    }
  ],
  "textures": [
    {
      "sampler": 0,
      "source": 0
    },
    {
      "sampler": 0,
      "source": 1
    },
    {
      "sampler": 0,
      "source": 2
    },
    {
      "sampler": 0,
      "source": 3
    }
  ]
}
