{
  "accessors": [
    {
      "bufferView": 2,
      "componentType": 5126,
      "count": 65532,
      "max": [
        10.451567649841309,
        1.5902183055877686,
        1.4707257747650146
      ],
      "min": [
        -10.451569557189941,
        -0.037251174449920654,
        -1.4707257747650146
      ],
      "type": "VEC3"
    },
    {
      "bufferView": 2,
      "byteOffset": 786384,
      "componentType": 5126,
      "count": 65532,
      "max": [
        1.0,
        1.0,
        1.0
      ],
      "min": [
        -1.0,
        -1.0,
        -1.0
      ],
      "type": "VEC3"
    },
    {
      "bufferView": 1,
      "componentType": 5126,
      "count": 65532,
      "max": [
        1.0,
        1.0
      ],
      "min": [
        -0.001213480019941926,
        0.004188954830169678
      ],
      "type": "VEC2"
    },
    {
      "bufferView": 0,
      "componentType": 5125,
      "count": 190476,
      "type": "SCALAR"
    },
    {
      "bufferView": 2,
      "byteOffset": 1572768,
      "componentType": 5126,
      "count": 18699,
      "max": [
        -2.7776007652282715,
        1.5902183055877686,
        1.4707248210906982
      ],
      "min": [
        -10.197663307189941,
        -0.037249062210321426,
        -1.4404029846191406
      ],
      "type": "VEC3"
    },
    {
      "bufferView": 2,
      "byteOffset": 1797156,
      "componentType": 5126,
      "count": 18699,
      "max": [
        1.0,
        1.0,
        1.0
      ],
      "min": [
        -1.0,
        -1.0,
        -1.0
      ],
      "type": "VEC3"
    },
    {
      "bufferView": 1,
      "byteOffset": 524256,
      "componentType": 5126,
      "count": 18699,
      "max": [
        1.0,
        1.0
      ],
      "min": [
        0.0,
        0.004188954830169678
      ],
      "type": "VEC2"
    },
    {
      "bufferView": 0,
      "byteOffset": 761904,
      "componentType": 5125,
      "count": 55620,
      "type": "SCALAR"
    },
    {
      "bufferView": 2,
      "byteOffset": 2021544,
      "componentType": 5126,
      "count": 39538,
      "max": [
        11.559331893920898,
        4.9702277183532715,
        1.5703153610229492
      ],
      "min": [
        -11.559330940246582,
        0.10501912236213684,
        -1.5703153610229492
      ],
      "type": "VEC3"
    },
    {
      "bufferView": 2,
      "byteOffset": 2496000,
      "componentType": 5126,
      "count": 39538,
      "max": [
        1.0,
        1.0,
        1.0
      ],
      "min": [
        -1.0,
        -1.0,
        -1.0
      ],
      "type": "VEC3"
    },
    {
      "bufferView": 1,
      "byteOffset": 673848,
      "componentType": 5126,
      "count": 39538,
      "max": [
        0.999933123588562,
        1.0
      ],
      "min": [
        -0.00011734070722013712,
        0.0
      ],
      "type": "VEC2"
    },
    {
      "bufferView": 0,
      "byteOffset": 984384,
      "componentType": 5125,
      "count": 127782,
      "type": "SCALAR"
    },
    {
      "bufferView": 2,
      "byteOffset": 2970456,
      "componentType": 5126,
      "count": 5725,
      "max": [
        11.200305938720703,
        4.752747058868408,
        1.4686416387557983
      ],
      "min": [
        -11.20030403137207,
        1.3784079551696777,
        -1.4686418771743774
      ],
      "type": "VEC3"
    },
    {
      "bufferView": 2,
      "byteOffset": 3039156,
      "componentType": 5126,
      "count": 5725,
      "max": [
        1.0,
        1.0,
        1.0
      ],
      "min": [
        -1.0,
        -1.0,
        -1.0
      ],
      "type": "VEC3"
    },
    {
      "bufferView": 1,
      "byteOffset": 990152,
      "componentType": 5126,
      "count": 5725,
      "max": [
        1.0,
        1.0
      ],
      "min": [
        0.0,
        0.3214057683944702
      ],
      "type": "VEC2"
    },
    {
      "bufferView": 0,
      "byteOffset": 1495512,
      "componentType": 5125,
      "count": 19164,
      "type": "SCALAR"
    },
    {
      "bufferView": 2,
      "byteOffset": 3107856,
      "componentType": 5126,
      "count": 524,
      "max": [
        11.177281379699707,
        4.757268905639648,
        1.584667444229126
      ],
      "min": [
        -11.177278518676758,
        1.6511355638504028,
        -1.584667444229126
      ],
      "type": "VEC3"
    },
    {
      "bufferView": 2,
      "byteOffset": 3114144,
      "componentType": 5126,
      "count": 524,
      "max": [
        1.0,
        1.0,
        1.0
      ],
      "min": [
        -1.0,
        -1.0,
        -1.0
      ],
      "type": "VEC3"
    },
    {
      "bufferView": 1,
      "byteOffset": 1035952,
      "componentType": 5126,
      "count": 524,
      "max": [
        0.9119613170623779,
        1.0
      ],
      "min": [
        0.0030656694434583187,
        0.10667693614959717
      ],
      "type": "VEC2"
    },
    {
      "bufferView": 0,
      "byteOffset": 1572168,
      "componentType": 5125,
      "count": 1476,
      "type": "SCALAR"
    },
    {
      "bufferView": 2,
      "byteOffset": 3120432,
      "componentType": 5126,
      "count": 224,
      "max": [
        11.192179679870605,
        3.793206214904785,
        1.4547797441482544
      ],
      "min": [
        -11.192179679870605,
        2.611213207244873,
        -1.4547797441482544
      ],
      "type": "VEC3"
    },
    {
      "bufferView": 2,
      "byteOffset": 3123120,
      "componentType": 5126,
      "count": 224,
      "max": [
        0.9998810887336731,
        0.9748501777648926,
        0.7072703242301941
      ],
      "min": [
        -0.9998810887336731,
        -0.9754692316055298,
        -0.7072703242301941
      ],
      "type": "VEC3"
    },
    {
      "bufferView": 1,
      "byteOffset": 1040144,
      "componentType": 5126,
      "count": 224,
      "max": [
        0.9956616163253784,
        0.9956642985343933
      ],
      "min": [
        0.004326043650507927,
        0.004328489303588867
      ],
      "type": "VEC2"
    },
    {
      "bufferView": 0,
      "byteOffset": 1578072,
      "componentType": 5125,
      "count": 864,
      "type": "SCALAR"
    }
  ],
  "asset": {
    "extras": {
      "author": "art.piskov (https://sketchfab.com/art.piskov)",
      "license": "CC-BY-4.0 (http://creativecommons.org/licenses/by/4.0/)",
      "source": "https://sketchfab.com/3d-models/hgjklfgh-18d097e82ad54a4eba4fee24a8cf47f7",
      "title": "hgjklfgh"
    },
    "generator": "Sketchfab-14.41.0",
    "version": "2.0"
  },
  "bufferViews": [
    {
      "buffer": 0,
      "byteLength": 1581528,
      "name": "floatBufferViews",
      "target": 34963
    },
    {
      "buffer": 0,
      "byteLength": 1041936,
      "byteOffset": 1581528,
      "byteStride": 8,
      "name": "floatBufferViews",
      "target": 34962
    },
    {
      "buffer": 0,
      "byteLength": 3125808,
      "byteOffset": 2623464,
      "byteStride": 12,
      "name": "floatBufferViews",
      "target": 34962
    }
  ],
  "buffers": [
    {
      "byteLength": 5749272,
      "uri": "scene.bin"
    }
  ],
  "extensionsUsed": [
    "KHR_materials_transmission"
  ],
  "images": [
    {
      "uri": "textures/M_TEP80-0002_01_baseColor.png"
    },
    {
      "uri": "textures/M_TEP80-0002_02_baseColor.png"
    },
    {
      "uri": "textures/M_TEP80-0002_03_baseColor.png"
    },
    {
      "uri": "textures/M_WindowsBack_baseColor.png"
    }
  ],
  "materials": [
    {
      "doubleSided": true,
      "name": "M_TEP80-0002_01",
      "pbrMetallicRoughness": {
        "baseColorTexture": {
          "index": 0
        },
        "metallicFactor": 0.0,
        "roughnessFactor": 0.552786
      }
    },
    {
      "doubleSided": true,
      "name": "M_TEP80-0002_02",
      "pbrMetallicRoughness": {
        "baseColorTexture": {
          "index": 1
        },
        "metallicFactor": 0.0,
        "roughnessFactor": 0.552786
      }
    },
    {
      "doubleSided": true,
      "name": "M_TEP80-0002_03",
      "pbrMetallicRoughness": {
        "baseColorTexture": {
          "index": 2
        },
        "metallicFactor": 0.0,
        "roughnessFactor": 0.552786
      }
    },
    {
      "alphaMode": "BLEND",
      "doubleSided": true,
      "extensions": {
        "KHR_materials_transmission": {
          "transmissionFactor": 1.0
        }
      },
      "name": "M_GlassTrans",
      "pbrMetallicRoughness": {
        "baseColorFactor": [
          0.296511,
          0.296511,
          0.296511,
          0.25
        ],
        "metallicFactor": 0.222727,
        "roughnessFactor": 0.0
      }
    },
    {
      "doubleSided": true,
      "name": "M_WindowsBack",
      "pbrMetallicRoughness": {
        "baseColorTexture": {
          "index": 3
        },
        "metallicFactor": 0.0,
        "roughnessFactor": 0.5
      }
    }
  ],
  "meshes": [
    {
      "name": "Object_0",
      "primitives": [
        {
          "attributes": {
            "NORMAL": 1,
            "POSITION": 0,
            "TEXCOORD_0": 2
          },
          "indices": 3,
          "material": 0,
          "mode": 4
        }
      ]
    },
    {
      "name": "Object_1",
      "primitives": [
        {
          "attributes": {
            "NORMAL": 5,
            "POSITION": 4,
            "TEXCOORD_0": 6
          },
          "indices": 7,
          "material": 0,
          "mode": 4
        }
      ]
    },
    {
      "name": "Object_2",
      "primitives": [
        {
          "attributes": {
            "NORMAL": 9,
            "POSITION": 8,
            "TEXCOORD_0": 10
          },
          "indices": 11,
          "material": 1,
          "mode": 4
        }
      ]
    },
    {
      "name": "Object_3",
      "primitives": [
        {
          "attributes": {
            "NORMAL": 13,
            "POSITION": 12,
            "TEXCOORD_0": 14
          },
          "indices": 15,
          "material": 2,
          "mode": 4
        }
      ]
    },
    {
      "name": "Object_4",
      "primitives": [
        {
          "attributes": {
            "NORMAL": 17,
            "POSITION": 16,
            "TEXCOORD_0": 18
          },
          "indices": 19,
          "material": 3,
          "mode": 4
        }
      ]
    },
    {
      "name": "Object_5",
      "primitives": [
        {
          "attributes": {
            "NORMAL": 21,
            "POSITION": 20,
            "TEXCOORD_0": 22
          },
          "indices": 23,
          "material": 4,
          "mode": 4
        }
      ]
    }
  ],
  "nodes": [
    {
      "children": [
        1
      ],
      "matrix": [
        1.0,
        0.0,
        0.0,
        0.0,
        0.0,
        2.220446049250313e-16,
        -1.0,
        0.0,
        0.0,
        1.0,
        2.220446049250313e-16,
        0.0,
        0.0,
        0.0,
        0.0,
        1.0
      ],
      "name": "Sketchfab_model"
    },
    {
      "children": [
        2
      ],
      "name": "root"
    },
    {
      "children": [
        3
      ],
      "matrix": [
        1.0,
        0.0,
        0.0,
        0.0,
        0.0,
        2.220446049250313e-16,
        1.0,
        0.0,
        0.0,
        -1.0,
        2.220446049250313e-16,
        0.0,
        0.0,
        0.0,
        0.0,
        1.0
      ],
      "name": "GLTF_SceneRootNode"
    },
    {
      "children": [
        4,
        5,
        6,
        7,
        8,
        9
      ],
      "name": "TEP80-0002_0"
    },
    {
      "mesh": 0,
      "name": "Object_4"
    },
    {
      "mesh": 1,
      "name": "Object_5"
    },
    {
      "mesh": 2,
      "name": "Object_6"
    },
    {
      "mesh": 3,
      "name": "Object_7"
    },
    {
      "mesh": 4,
      "name": "Object_8"
    },
    {
      "mesh": 5,
      "name": "Object_9"
    }
  ],
  "samplers": [
    {
      "magFilter": 9729,
      "minFilter": 9987,
      "wrapS": 10497,
      "wrapT": 10497
    }
  ],
  "scene": 0,
  "scenes": [
    {
      "name": "Sketchfab_Scene",
      "nodes": [
        0
      ]
    }
  ],
  "textures": [
    {
      "sampler": 0,
      "source": 0
    },
    {
      "sampler": 0,
      "source": 1
    },
    {
      "sampler": 0,
      "source": 2
    },
    {
      "sampler": 0,
      "source": 3
    }
  ]
}
