<svg width="52" height="52" viewBox="0 0 52 52" fill="none" xmlns="http://www.w3.org/2000/svg">
<path d="M36.0425 19.8941L25.9469 24.6025L15.8539 19.8941" stroke="#E21A1A" stroke-width="3.3125" stroke-linecap="round" stroke-linejoin="round"/>
<path d="M15.3927 17.8226C14.8317 18.1032 14.4773 18.6766 14.4772 19.3039L14.4761 32.6947C14.476 33.3086 14.8156 33.8722 15.3583 34.1591L25.2258 39.3752C25.7101 39.6312 26.2896 39.6312 26.7738 39.3753L36.641 34.1598C37.1837 33.8729 37.5233 33.3093 37.5232 32.6954L37.5224 19.3036C37.5224 18.6763 37.168 18.1028 36.6069 17.8223L26.7404 12.889C26.2741 12.6558 25.7252 12.6558 25.2589 12.889L15.3927 17.8226Z" stroke="#E21A1A" stroke-width="3.3125" stroke-linecap="round" stroke-linejoin="round"/>
<path d="M25.9482 24.6025V36.7139" stroke="#E21A1A" stroke-width="3.3125" stroke-linecap="round" stroke-linejoin="round"/>
<path d="M7.78125 15.8555L7.78125 12.75C7.78125 10.0058 10.0058 7.78123 12.75 7.78123H15.8555" stroke="#E21A1A" stroke-width="3.3125" stroke-linecap="round" stroke-linejoin="round"/>
<path d="M44.1152 15.8555L44.1152 12.75C44.1152 10.0058 41.8906 7.78123 39.1465 7.78123H36.041" stroke="#E21A1A" stroke-width="3.3125" stroke-linecap="round" stroke-linejoin="round"/>
<path d="M7.78125 36.041L7.78125 39.1465C7.78125 41.8906 10.0058 44.1152 12.75 44.1152H15.8555" stroke="#E21A1A" stroke-width="3.3125" stroke-linecap="round" stroke-linejoin="round"/>
<path d="M44.1152 36.041L44.1152 39.1465C44.1152 41.8906 41.8906 44.1152 39.1465 44.1152H36.041" stroke="#E21A1A" stroke-width="3.3125" stroke-linecap="round" stroke-linejoin="round"/>
</svg>
