<svg width="61" height="60" viewBox="0 0 61 60" fill="none" xmlns="http://www.w3.org/2000/svg">
<rect x="0.947266" width="60" height="60" rx="16.0064" fill="#E21A1A"/>
<path d="M36.8691 23.0836V28.5535C35.1157 31.2506 33.7759 34.2389 32.9429 37.4312V28.6816C34.0613 26.6836 35.3778 24.8079 36.8691 23.0836Z" fill="white"/>
<path d="M23.813 36.4001L23.7897 11.7768C25.0363 11.2875 26.347 10.9205 27.7042 10.6933V26.1302C25.9567 29.3166 24.6343 32.7652 23.813 36.4001Z" fill="white"/>
<path d="M36.8691 11.3408V20.6961C35.3778 22.3563 34.1254 24.0864 32.9429 25.9738V10.5311C34.2943 10.665 35.6108 10.9447 36.8691 11.3408Z" fill="white"/>
<path d="M37.013 42.4404L36.9956 42.5802H33.0519C33.9082 32.7006 39.5062 24.2947 47.5218 19.5996C48.2208 20.7064 48.8092 21.8889 49.2752 23.1355C42.5412 27.1724 37.8286 34.2326 37.013 42.4404Z" fill="white"/>
<path d="M27.7877 42.4421L27.776 42.5877H23.8381L23.844 42.512L23.8498 42.4362L23.8556 42.3488L23.8614 42.2615C24.7643 30.1158 31.2711 19.5372 40.8071 13.0887C41.9954 13.7819 43.1022 14.5974 44.1158 15.5178C34.9352 21.209 28.6148 31.0654 27.7877 42.4421Z" fill="white"/>
<path d="M30.9457 6C44.1981 6 54.9457 16.7476 54.9457 30C54.9457 43.2524 44.1981 54 30.9457 54C17.6933 54 6.94568 43.2524 6.94568 30C6.94568 16.7476 17.6933 6 30.9457 6ZM30.9457 9.46019C19.6039 9.46019 10.4059 18.6524 10.4059 30C10.4059 41.3418 19.5981 50.5398 30.9457 50.5398C42.2874 50.5398 51.4855 41.3418 51.4855 30C51.4855 18.6583 42.2874 9.46019 30.9457 9.46019Z" fill="white"/>
</svg>
