{
  "accessors": [
    {
      "bufferView": 2,
      "componentType": 5126,
      "count": 65532,
      "max": [
        9.324946403503418,
        3.459172010421753,
        1.5502153635025024
      ],
      "min": [
        -9.102316856384277,
        0.27119073271751404,
        -1.5140202045440674
      ],
      "type": "VEC3"
    },
    {
      "bufferView": 2,
      "byteOffset": 786384,
      "componentType": 5126,
      "count": 65532,
      "max": [
        1.0,
        1.0,
        1.0
      ],
      "min": [
        -1.0,
        -1.0,
        -1.0
      ],
      "type": "VEC3"
    },
    {
      "bufferView": 1,
      "componentType": 5126,
      "count": 65532,
      "max": [
        0.992308497428894,
        0.9585853815078735
      ],
      "min": [
        0.1007438451051712,
        0.03726804256439209
      ],
      "type": "VEC2"
    },
    {
      "bufferView": 0,
      "componentType": 5125,
      "count": 71319,
      "type": "SCALAR"
    },
    {
      "bufferView": 2,
      "byteOffset": 1572768,
      "componentType": 5126,
      "count": 65534,
      "max": [
        8.3472318649292,
        4.4434638023376465,
        1.519759178161621
      ],
      "min": [
        -9.343050003051758,
        0.2746852934360504,
        -1.5791268348693848
      ],
      "type": "VEC3"
    },
    {
      "bufferView": 2,
      "byteOffset": 2359176,
      "componentType": 5126,
      "count": 65534,
      "max": [
        1.0,
        1.0,
        1.0
      ],
      "min": [
        -1.0,
        -1.0,
        -1.0
      ],
      "type": "VEC3"
    },
    {
      "bufferView": 1,
      "byteOffset": 524256,
      "componentType": 5126,
      "count": 65534,
      "max": [
        0.9921517968177795,
        0.980850338935852
      ],
      "min": [
        0.1499931961297989,
        0.09925669431686401
      ],
      "type": "VEC2"
    },
    {
      "bufferView": 0,
      "byteOffset": 285276,
      "componentType": 5125,
      "count": 67359,
      "type": "SCALAR"
    },
    {
      "bufferView": 2,
      "byteOffset": 3145584,
      "componentType": 5126,
      "count": 65534,
      "max": [
        8.751151084899902,
        4.7689948081970215,
        1.6282072067260742
      ],
      "min": [
        -8.943155288696289,
        0.27119073271751404,
        -1.6114625930786133
      ],
      "type": "VEC3"
    },
    {
      "bufferView": 2,
      "byteOffset": 3931992,
      "componentType": 5126,
      "count": 65534,
      "max": [
        1.0,
        1.0,
        1.0
      ],
      "min": [
        -1.0,
        -1.0,
        -1.0
      ],
      "type": "VEC3"
    },
    {
      "bufferView": 1,
      "byteOffset": 1048528,
      "componentType": 5126,
      "count": 65534,
      "max": [
        0.9938403964042664,
        0.9836013317108154
      ],
      "min": [
        0.011722180061042309,
        0.027554094791412354
      ],
      "type": "VEC2"
    },
    {
      "bufferView": 0,
      "byteOffset": 554712,
      "componentType": 5125,
      "count": 66951,
      "type": "SCALAR"
    },
    {
      "bufferView": 2,
      "byteOffset": 4718400,
      "componentType": 5126,
      "count": 65532,
      "max": [
        8.751151084899902,
        4.774927616119385,
        1.6828681230545044
      ],
      "min": [
        -8.978266716003418,
        0.2552604675292969,
        -1.6433436870574951
      ],
      "type": "VEC3"
    },
    {
      "bufferView": 2,
      "byteOffset": 5504784,
      "componentType": 5126,
      "count": 65532,
      "max": [
        1.0,
        1.0,
        1.0
      ],
      "min": [
        -1.0,
        -1.0,
        -1.0
      ],
      "type": "VEC3"
    },
    {
      "bufferView": 1,
      "byteOffset": 1572800,
      "componentType": 5126,
      "count": 65532,
      "max": [
        0.9936696887016296,
        0.9914180040359497
      ],
      "min": [
        0.005661961622536182,
        0.010029017925262451
      ],
      "type": "VEC2"
    },
    {
      "bufferView": 0,
      "byteOffset": 822516,
      "componentType": 5125,
      "count": 71184,
      "type": "SCALAR"
    },
    {
      "bufferView": 2,
      "byteOffset": 6291168,
      "componentType": 5126,
      "count": 57768,
      "max": [
        9.078593254089355,
        3.949993848800659,
        1.2844185829162598
      ],
      "min": [
        0.9194495677947998,
        0.838919460773468,
        -1.6281054019927979
      ],
      "type": "VEC3"
    },
    {
      "bufferView": 2,
      "byteOffset": 6984384,
      "componentType": 5126,
      "count": 57768,
      "max": [
        1.0,
        1.0,
        1.0
      ],
      "min": [
        -1.0,
        -1.0,
        -1.0
      ],
      "type": "VEC3"
    },
    {
      "bufferView": 1,
      "byteOffset": 2097056,
      "componentType": 5126,
      "count": 57768,
      "max": [
        0.9918176531791687,
        0.9836013317108154
      ],
      "min": [
        0.011722180061042309,
        0.027554094791412354
      ],
      "type": "VEC2"
    },
    {
      "bufferView": 0,
      "byteOffset": 1107252,
      "componentType": 5125,
      "count": 59193,
      "type": "SCALAR"
    },
    {
      "bufferView": 2,
      "byteOffset": 7677600,
      "componentType": 5126,
      "count": 65534,
      "max": [
        9.505614280700684,
        3.4240055084228516,
        1.4215335845947266
      ],
      "min": [
        -9.560297012329102,
        0.0037792206276208162,
        -1.500627875328064
      ],
      "type": "VEC3"
    },
    {
      "bufferView": 2,
      "byteOffset": 8464008,
      "componentType": 5126,
      "count": 65534,
      "max": [
        1.0,
        1.0,
        1.0
      ],
      "min": [
        -1.0,
        -1.0,
        -1.0
      ],
      "type": "VEC3"
    },
    {
      "bufferView": 1,
      "byteOffset": 2559200,
      "componentType": 5126,
      "count": 65534,
      "max": [
        0.9957155585289001,
        0.9892371892929077
      ],
      "min": [
        0.004612518474459648,
        0.009782791137695313
      ],
      "type": "VEC2"
    },
    {
      "bufferView": 0,
      "byteOffset": 1344024,
      "componentType": 5125,
      "count": 67965,
      "type": "SCALAR"
    },
    {
      "bufferView": 2,
      "byteOffset": 9250416,
      "componentType": 5126,
      "count": 65533,
      "max": [
        8.923420906066895,
        1.7829866409301758,
        1.5659257173538208
      ],
      "min": [
        -9.39465045928955,
        0.0786222442984581,
        -1.569405436515808
      ],
      "type": "VEC3"
    },
    {
      "bufferView": 2,
      "byteOffset": 10036812,
      "componentType": 5126,
      "count": 65533,
      "max": [
        1.0,
        1.0,
        1.0
      ],
      "min": [
        -1.0,
        -1.0,
        -1.0
      ],
      "type": "VEC3"
    },
    {
      "bufferView": 1,
      "byteOffset": 3083472,
      "componentType": 5126,
      "count": 65533,
      "max": [
        0.9976212382316589,
        0.9921765327453613
      ],
      "min": [
        0.003995438106358051,
        0.005904197692871094
      ],
      "type": "VEC2"
    },
    {
      "bufferView": 0,
      "byteOffset": 1615884,
      "componentType": 5125,
      "count": 81132,
      "type": "SCALAR"
    },
    {
      "bufferView": 2,
      "byteOffset": 10823208,
      "componentType": 5126,
      "count": 65532,
      "max": [
        4.626942157745361,
        1.548686146736145,
        1.4462451934814453
      ],
      "min": [
        -9.023330688476563,
        -0.023460960015654564,
        -1.4163486957550049
      ],
      "type": "VEC3"
    },
    {
      "bufferView": 2,
      "byteOffset": 11609592,
      "componentType": 5126,
      "count": 65532,
      "max": [
        1.0,
        1.0,
        1.0
      ],
      "min": [
        -1.0,
        -1.0,
        -1.0
      ],
      "type": "VEC3"
    },
    {
      "bufferView": 1,
      "byteOffset": 3607736,
      "componentType": 5126,
      "count": 65532,
      "max": [
        0.9976212382316589,
        0.9921765327453613
      ],
      "min": [
        0.005309101194143295,
        0.012045860290527344
      ],
      "type": "VEC2"
    },
    {
      "bufferView": 0,
      "byteOffset": 1940412,
      "componentType": 5125,
      "count": 67542,
      "type": "SCALAR"
    },
    {
      "bufferView": 2,
      "byteOffset": 12395976,
      "componentType": 5126,
      "count": 65532,
      "max": [
        9.560297012329102,
        1.6697994470596313,
        1.5977495908737183
      ],
      "min": [
        -9.466029167175293,
        0.07614173740148544,
        -1.5991885662078857
      ],
      "type": "VEC3"
    },
    {
      "bufferView": 2,
      "byteOffset": 13182360,
      "componentType": 5126,
      "count": 65532,
      "max": [
        1.0,
        1.0,
        1.0
      ],
      "min": [
        -1.0,
        -1.0,
        -1.0
      ],
      "type": "VEC3"
    },
    {
      "bufferView": 1,
      "byteOffset": 4131992,
      "componentType": 5126,
      "count": 65532,
      "max": [
        0.9957155585289001,
        0.9954725503921509
      ],
      "min": [
        -0.00023060408420860767,
        0.0059969425201416016
      ],
      "type": "VEC2"
    },
    {
      "bufferView": 0,
      "byteOffset": 2210580,
      "componentType": 5125,
      "count": 66867,
      "type": "SCALAR"
    },
    {
      "bufferView": 2,
      "byteOffset": 13968744,
      "componentType": 5126,
      "count": 65533,
      "max": [
        8.30312442779541,
        3.162900686264038,
        1.4204989671707153
      ],
      "min": [
        0.5823967456817627,
        -0.03308143839240074,
        -1.4221571683883667
      ],
      "type": "VEC3"
    },
    {
      "bufferView": 2,
      "byteOffset": 14755140,
      "componentType": 5126,
      "count": 65533,
      "max": [
        1.0,
        1.0,
        1.0
      ],
      "min": [
        -1.0,
        -1.0,
        -1.0
      ],
      "type": "VEC3"
    },
    {
      "bufferView": 1,
      "byteOffset": 4656248,
      "componentType": 5126,
      "count": 65533,
      "max": [
        0.9956374764442444,
        0.9942805767059326
      ],
      "min": [
        0.002433601999655366,
        0.005157947540283203
      ],
      "type": "VEC2"
    },
    {
      "bufferView": 0,
      "byteOffset": 2478048,
      "componentType": 5125,
      "count": 66789,
      "type": "SCALAR"
    },
    {
      "bufferView": 2,
      "byteOffset": 15541536,
      "componentType": 5126,
      "count": 65532,
      "max": [
        8.922030448913574,
        2.933725118637085,
        1.6053849458694458
      ],
      "min": [
        -8.953486442565918,
        -0.03666858747601509,
        -1.4934399127960205
      ],
      "type": "VEC3"
    },
    {
      "bufferView": 2,
      "byteOffset": 16327920,
      "componentType": 5126,
      "count": 65532,
      "max": [
        1.0,
        1.0,
        1.0
      ],
      "min": [
        -1.0,
        -1.0,
        -1.0
      ],
      "type": "VEC3"
    },
    {
      "bufferView": 1,
      "byteOffset": 5180512,
      "componentType": 5126,
      "count": 65532,
      "max": [
        0.9979332089424133,
        0.9906476736068726
      ],
      "min": [
        0.004515953827649355,
        0.008405208587646484
      ],
      "type": "VEC2"
    },
    {
      "bufferView": 0,
      "byteOffset": 2745204,
      "componentType": 5125,
      "count": 66927,
      "type": "SCALAR"
    },
    {
      "bufferView": 2,
      "byteOffset": 17114304,
      "componentType": 5126,
      "count": 2840,
      "max": [
        7.283542156219482,
        1.1899216175079346,
        1.5309076309204102
      ],
      "min": [
        -0.9381514191627502,
        0.4963630735874176,
        -1.531874656677246
      ],
      "type": "VEC3"
    },
    {
      "bufferView": 2,
      "byteOffset": 17148384,
      "componentType": 5126,
      "count": 2840,
      "max": [
        1.0,
        1.0,
        1.0
      ],
      "min": [
        -1.0,
        -1.0,
        -1.0
      ],
      "type": "VEC3"
    },
    {
      "bufferView": 1,
      "byteOffset": 5704768,
      "componentType": 5126,
      "count": 2840,
      "max": [
        0.9865798354148865,
        0.9899847507476807
      ],
      "min": [
        0.020594529807567596,
        0.05731916427612305
      ],
      "type": "VEC2"
    },
    {
      "bufferView": 0,
      "byteOffset": 3012912,
      "componentType": 5125,
      "count": 2880,
      "type": "SCALAR"
    },
    {
      "bufferView": 2,
      "byteOffset": 17182464,
      "componentType": 5126,
      "count": 316,
      "max": [
        8.73676586151123,
        3.1919543743133545,
        1.4930291175842285
      ],
      "min": [
        -9.07982349395752,
        1.375558614730835,
        -1.4967199563980103
      ],
      "type": "VEC3"
    },
    {
      "bufferView": 2,
      "byteOffset": 17186256,
      "componentType": 5126,
      "count": 316,
      "max": [
        1.0,
        1.0,
        1.0
      ],
      "min": [
        -1.0,
        -1.0,
        -1.0
      ],
      "type": "VEC3"
    },
    {
      "bufferView": 1,
      "byteOffset": 5727488,
      "componentType": 5126,
      "count": 316,
      "max": [
        0.9905872344970703,
        0.9887927174568176
      ],
      "min": [
        0.014428168535232544,
        0.00472414493560791
      ],
      "type": "VEC2"
    },
    {
      "bufferView": 0,
      "byteOffset": 3024432,
      "componentType": 5125,
      "count": 384,
      "type": "SCALAR"
    },
    {
      "bufferView": 2,
      "byteOffset": 17190048,
      "componentType": 5126,
      "count": 32,
      "max": [
        1.2663469314575195,
        3.0593276023864746,
        1.4847491979599
      ],
      "min": [
        -0.032940059900283813,
        2.4176175594329834,
        -1.48965585231781
      ],
      "type": "VEC3"
    },
    {
      "bufferView": 2,
      "byteOffset": 17190432,
      "componentType": 5126,
      "count": 32,
      "max": [
        0.7144287824630737,
        0.7164297103881836,
        0.7164180278778076
      ],
      "min": [
        -0.7144289016723633,
        -0.7164189219474792,
        -0.7164305448532104
      ],
      "type": "VEC3"
    },
    {
      "bufferView": 1,
      "byteOffset": 5730016,
      "componentType": 5126,
      "count": 32,
      "max": [
        0.9956616163253784,
        0.9956642985343933
      ],
      "min": [
        0.004326043650507927,
        0.004328489303588867
      ],
      "type": "VEC2"
    },
    {
      "bufferView": 0,
      "byteOffset": 3025968,
      "componentType": 5125,
      "count": 120,
      "type": "SCALAR"
    }
  ],
  "asset": {
    "extras": {
      "author": "art.piskov (https://sketchfab.com/art.piskov)",
      "license": "CC-BY-4.0 (http://creativecommons.org/licenses/by/4.0/)",
      "source": "https://sketchfab.com/3d-models/klllllllllllsvvlvds-da6b598727a14b7c9be38be353b69328",
      "title": "kllllllllll,lsvv;lvds"
    },
    "generator": "Sketchfab-14.60.0",
    "version": "2.0"
  },
  "bufferViews": [
    {
      "buffer": 0,
      "byteLength": 3026448,
      "name": "floatBufferViews",
      "target": 34963
    },
    {
      "buffer": 0,
      "byteLength": 5730272,
      "byteOffset": 3026448,
      "byteStride": 8,
      "name": "floatBufferViews",
      "target": 34962
    },
    {
      "buffer": 0,
      "byteLength": 17190816,
      "byteOffset": 8756720,
      "byteStride": 12,
      "name": "floatBufferViews",
      "target": 34962
    }
  ],
  "buffers": [
    {
      "byteLength": 25947536,
      "uri": "scene.bin"
    }
  ],
  "extensionsUsed": [
    "KHR_materials_specular"
  ],
  "images": [
    {
      "uri": "textures/M_OV6640_01_baseColor.png"
    },
    {
      "uri": "textures/M_OV6640_02_baseColor.png"
    },
    {
      "uri": "textures/M_GlassTrans_baseColor.png"
    }
  ],
  "materials": [
    {
      "doubleSided": true,
      "name": "M_OV6640_01",
      "pbrMetallicRoughness": {
        "baseColorTexture": {
          "index": 0
        },
        "metallicFactor": 0.0,
        "roughnessFactor": 0.552786
      }
    },
    {
      "doubleSided": true,
      "name": "M_OV6640_02",
      "pbrMetallicRoughness": {
        "baseColorTexture": {
          "index": 1
        },
        "metallicFactor": 0.0,
        "roughnessFactor": 0.552786
      }
    },
    {
      "doubleSided": true,
      "extensions": {
        "KHR_materials_specular": {
          "specularColorFactor": [
            1.0,
            1.0,
            1.0
          ],
          "specularFactor": 1.0
        }
      },
      "name": "M_GlassTrans",
      "pbrMetallicRoughness": {
        "baseColorTexture": {
          "index": 2
        },
        "metallicFactor": 0.222727,
        "roughnessFactor": 0.0
      }
    },
    {
      "doubleSided": true,
      "extensions": {
        "KHR_materials_specular": {
          "specularColorFactor": [
            1.0,
            1.0,
            1.0
          ],
          "specularFactor": 1.0
        }
      },
      "name": "M_WindowsBack",
      "pbrMetallicRoughness": {
        "baseColorTexture": {
          "index": 2
        },
        "metallicFactor": 0.0,
        "roughnessFactor": 0.5
      }
    }
  ],
  "meshes": [
    {
      "name": "Object_0",
      "primitives": [
        {
          "attributes": {
            "NORMAL": 1,
            "POSITION": 0,
            "TEXCOORD_0": 2
          },
          "indices": 3,
          "material": 0,
          "mode": 4
        }
      ]
    },
    {
      "name": "Object_1",
      "primitives": [
        {
          "attributes": {
            "NORMAL": 5,
            "POSITION": 4,
            "TEXCOORD_0": 6
          },
          "indices": 7,
          "material": 0,
          "mode": 4
        }
      ]
    },
    {
      "name": "Object_2",
      "primitives": [
        {
          "attributes": {
            "NORMAL": 9,
            "POSITION": 8,
            "TEXCOORD_0": 10
          },
          "indices": 11,
          "material": 0,
          "mode": 4
        }
      ]
    },
    {
      "name": "Object_3",
      "primitives": [
        {
          "attributes": {
            "NORMAL": 13,
            "POSITION": 12,
            "TEXCOORD_0": 14
          },
          "indices": 15,
          "material": 0,
          "mode": 4
        }
      ]
    },
    {
      "name": "Object_4",
      "primitives": [
        {
          "attributes": {
            "NORMAL": 17,
            "POSITION": 16,
            "TEXCOORD_0": 18
          },
          "indices": 19,
          "material": 0,
          "mode": 4
        }
      ]
    },
    {
      "name": "Object_5",
      "primitives": [
        {
          "attributes": {
            "NORMAL": 21,
            "POSITION": 20,
            "TEXCOORD_0": 22
          },
          "indices": 23,
          "material": 1,
          "mode": 4
        }
      ]
    },
    {
      "name": "Object_6",
      "primitives": [
        {
          "attributes": {
            "NORMAL": 25,
            "POSITION": 24,
            "TEXCOORD_0": 26
          },
          "indices": 27,
          "material": 1,
          "mode": 4
        }
      ]
    },
    {
      "name": "Object_7",
      "primitives": [
        {
          "attributes": {
            "NORMAL": 29,
            "POSITION": 28,
            "TEXCOORD_0": 30
          },
          "indices": 31,
          "material": 1,
          "mode": 4
        }
      ]
    },
    {
      "name": "Object_8",
      "primitives": [
        {
          "attributes": {
            "NORMAL": 33,
            "POSITION": 32,
            "TEXCOORD_0": 34
          },
          "indices": 35,
          "material": 1,
          "mode": 4
        }
      ]
    },
    {
      "name": "Object_9",
      "primitives": [
        {
          "attributes": {
            "NORMAL": 37,
            "POSITION": 36,
            "TEXCOORD_0": 38
          },
          "indices": 39,
          "material": 1,
          "mode": 4
        }
      ]
    },
    {
      "name": "Object_10",
      "primitives": [
        {
          "attributes": {
            "NORMAL": 41,
            "POSITION": 40,
            "TEXCOORD_0": 42
          },
          "indices": 43,
          "material": 1,
          "mode": 4
        }
      ]
    },
    {
      "name": "Object_11",
      "primitives": [
        {
          "attributes": {
            "NORMAL": 45,
            "POSITION": 44,
            "TEXCOORD_0": 46
          },
          "indices": 47,
          "material": 1,
          "mode": 4
        }
      ]
    },
    {
      "name": "Object_12",
      "primitives": [
        {
          "attributes": {
            "NORMAL": 49,
            "POSITION": 48,
            "TEXCOORD_0": 50
          },
          "indices": 51,
          "material": 2,
          "mode": 4
        }
      ]
    },
    {
      "name": "Object_13",
      "primitives": [
        {
          "attributes": {
            "NORMAL": 53,
            "POSITION": 52,
            "TEXCOORD_0": 54
          },
          "indices": 55,
          "material": 3,
          "mode": 4
        }
      ]
    }
  ],
  "nodes": [
    {
      "children": [
        1
      ],
      "matrix": [
        0.029308071359992027,
        0.0,
        0.0,
        0.0,
        0.0,
        6.507699126244055e-18,
        -0.029308071359992027,
        0.0,
        0.0,
        0.029308071359992027,
        6.507699126244055e-18,
        0.0,
        0.0,
        0.0,
        0.0,
        1.0
      ],
      "name": "Sketchfab_model"
    },
    {
      "children": [
        2
      ],
      "name": "root"
    },
    {
      "children": [
        3
      ],
      "matrix": [
        1.0,
        0.0,
        0.0,
        0.0,
        0.0,
        2.220446049250313e-16,
        1.0,
        0.0,
        0.0,
        -1.0,
        2.220446049250313e-16,
        0.0,
        0.0,
        0.0,
        0.0,
        1.0
      ],
      "name": "GLTF_SceneRootNode"
    },
    {
      "children": [
        4,
        5,
        6,
        7,
        8,
        9,
        10,
        11,
        12,
        13,
        14,
        15,
        16,
        17
      ],
      "name": "OV6640_0"
    },
    {
      "mesh": 0,
      "name": "Object_4"
    },
    {
      "mesh": 1,
      "name": "Object_5"
    },
    {
      "mesh": 2,
      "name": "Object_6"
    },
    {
      "mesh": 3,
      "name": "Object_7"
    },
    {
      "mesh": 4,
      "name": "Object_8"
    },
    {
      "mesh": 5,
      "name": "Object_9"
    },
    {
      "mesh": 6,
      "name": "Object_10"
    },
    {
      "mesh": 7,
      "name": "Object_11"
    },
    {
      "mesh": 8,
      "name": "Object_12"
    },
    {
      "mesh": 9,
      "name": "Object_13"
    },
    {
      "mesh": 10,
      "name": "Object_14"
    },
    {
      "mesh": 11,
      "name": "Object_15"
    },
    {
      "mesh": 12,
      "name": "Object_16"
    },
    {
      "mesh": 13,
      "name": "Object_17"
    }
  ],
  "samplers": [
    {
      "magFilter": 9729,
      "minFilter": 9987,
      "wrapS": 10497,
      "wrapT": 10497
    }
  ],
  "scene": 0,
  "scenes": [
    {
      "name": "Sketchfab_Scene",
      "nodes": [
        0
      ]
    }
  ],
  "textures": [
    {
      "sampler": 0,
      "source": 0
    },
    {
      "sampler": 0,
      "source": 1
    },
    {
      "sampler": 0,
      "source": 2
    }
  ]
}
