{
  "accessors": [
    {
      "bufferView": 2,
      "componentType": 5126,
      "count": 24921,
      "max": [
        4.238495826721191,
        3.939260721206665,
        1.5000689029693604
      ],
      "min": [
        -4.060144424438477,
        1.1525542736053467,
        -1.506677269935608
      ],
      "type": "VEC3"
    },
    {
      "bufferView": 2,
      "byteOffset": 299052,
      "componentType": 5126,
      "count": 24921,
      "max": [
        1.0,
        1.0,
        1.0
      ],
      "min": [
        -1.0,
        -1.0,
        -1.0
      ],
      "type": "VEC3"
    },
    {
      "bufferView": 1,
      "componentType": 5126,
      "count": 24921,
      "max": [
        1.9979990720748901,
        0.9980031251907349
      ],
      "min": [
        0.0019970559515058994,
        0.005889773368835449
      ],
      "type": "VEC2"
    },
    {
      "bufferView": 1,
      "byteOffset": 199368,
      "componentType": 5126,
      "count": 24921,
      "max": [
        0.0,
        1.0
      ],
      "min": [
        0.0,
        1.0
      ],
      "type": "VEC2"
    },
    {
      "bufferView": 0,
      "componentType": 5125,
      "count": 60726,
      "type": "SCALAR"
    },
    {
      "bufferView": 2,
      "byteOffset": 598104,
      "componentType": 5126,
      "count": 65532,
      "max": [
        4.213504791259766,
        4.76763391494751,
        1.6671807765960693
      ],
      "min": [
        -4.102033615112305,
        -0.02780953049659729,
        -1.6671818494796753
      ],
      "type": "VEC3"
    },
    {
      "bufferView": 2,
      "byteOffset": 1384488,
      "componentType": 5126,
      "count": 65532,
      "max": [
        1.0,
        1.0,
        1.0
      ],
      "min": [
        -1.0,
        -1.0,
        -1.0
      ],
      "type": "VEC3"
    },
    {
      "bufferView": 1,
      "byteOffset": 398736,
      "componentType": 5126,
      "count": 65532,
      "max": [
        1.997995138168335,
        0.9979981184005737
      ],
      "min": [
        0.00200336123816669,
        0.0240478515625
      ],
      "type": "VEC2"
    },
    {
      "bufferView": 1,
      "byteOffset": 922992,
      "componentType": 5126,
      "count": 65532,
      "max": [
        0.0,
        1.0
      ],
      "min": [
        0.0,
        1.0
      ],
      "type": "VEC2"
    },
    {
      "bufferView": 0,
      "byteOffset": 242904,
      "componentType": 5125,
      "count": 192690,
      "type": "SCALAR"
    },
    {
      "bufferView": 2,
      "byteOffset": 2170872,
      "componentType": 5126,
      "count": 21935,
      "max": [
        4.3303728103637695,
        3.3912386894226074,
        1.5513520240783691
      ],
      "min": [
        -4.330373764038086,
        0.8453179597854614,
        -1.5513535737991333
      ],
      "type": "VEC3"
    },
    {
      "bufferView": 2,
      "byteOffset": 2434092,
      "componentType": 5126,
      "count": 21935,
      "max": [
        1.0,
        1.0,
        1.0
      ],
      "min": [
        -1.0,
        -1.0,
        -1.0
      ],
      "type": "VEC3"
    },
    {
      "bufferView": 1,
      "byteOffset": 1447248,
      "componentType": 5126,
      "count": 21935,
      "max": [
        1.9979571104049683,
        0.9979981184005737
      ],
      "min": [
        0.004371464252471924,
        0.04135298728942871
      ],
      "type": "VEC2"
    },
    {
      "bufferView": 1,
      "byteOffset": 1622728,
      "componentType": 5126,
      "count": 21935,
      "max": [
        0.0,
        1.0
      ],
      "min": [
        0.0,
        1.0
      ],
      "type": "VEC2"
    },
    {
      "bufferView": 0,
      "byteOffset": 1013664,
      "componentType": 5125,
      "count": 77181,
      "type": "SCALAR"
    },
    {
      "bufferView": 2,
      "byteOffset": 2697312,
      "componentType": 5126,
      "count": 1432,
      "max": [
        3.6320106983184814,
        3.540088653564453,
        -1.4383865594863892
      ],
      "min": [
        -2.9038383960723877,
        1.1607826948165894,
        -1.454074501991272
      ],
      "type": "VEC3"
    },
    {
      "bufferView": 2,
      "byteOffset": 2714496,
      "componentType": 5126,
      "count": 1432,
      "max": [
        0.9496934413909912,
        1.0,
        0.3819034993648529
      ],
      "min": [
        -0.7730022668838501,
        -1.0,
        -1.0
      ],
      "type": "VEC3"
    },
    {
      "bufferView": 1,
      "byteOffset": 1798208,
      "componentType": 5126,
      "count": 1432,
      "max": [
        1.5572588443756104,
        0.62940913438797
      ],
      "min": [
        0.006287127733230591,
        0.18078815937042236
      ],
      "type": "VEC2"
    },
    {
      "bufferView": 1,
      "byteOffset": 1809664,
      "componentType": 5126,
      "count": 1432,
      "max": [
        0.0,
        1.0
      ],
      "min": [
        0.0,
        1.0
      ],
      "type": "VEC2"
    },
    {
      "bufferView": 0,
      "byteOffset": 1322388,
      "componentType": 5125,
      "count": 2634,
      "type": "SCALAR"
    }
  ],
  "asset": {
    "extras": {
      "author": "art.piskov (https://sketchfab.com/art.piskov)",
      "license": "CC-BY-4.0 (http://creativecommons.org/licenses/by/4.0/)",
      "source": "https://sketchfab.com/3d-models/cfvghjklkjhg-0fc3bbb3f5fd442dbfe86fad224f9103",
      "title": "cfvghjklkjhg"
    },
    "generator": "Sketchfab-14.41.0",
    "version": "2.0"
  },
  "bufferViews": [
    {
      "buffer": 0,
      "byteLength": 1332924,
      "name": "floatBufferViews",
      "target": 34963
    },
    {
      "buffer": 0,
      "byteLength": 1821120,
      "byteOffset": 1332924,
      "byteStride": 8,
      "name": "floatBufferViews",
      "target": 34962
    },
    {
      "buffer": 0,
      "byteLength": 2731680,
      "byteOffset": 3154044,
      "byteStride": 12,
      "name": "floatBufferViews",
      "target": 34962
    }
  ],
  "buffers": [
    {
      "byteLength": 5885724,
      "uri": "scene.bin"
    }
  ],
  "images": [
    {
      "uri": "textures/M_OMS-847-025_01_baseColor.png"
    },
    {
      "uri": "textures/M_OMS-847-025_02_baseColor.png"
    }
  ],
  "materials": [
    {
      "doubleSided": true,
      "name": "M_OMS-847-025_01",
      "pbrMetallicRoughness": {
        "baseColorTexture": {
          "index": 0
        },
        "metallicFactor": 0.0,
        "roughnessFactor": 0.552786
      }
    },
    {
      "doubleSided": true,
      "name": "M_OMS-847-025_02",
      "pbrMetallicRoughness": {
        "baseColorTexture": {
          "index": 1
        },
        "metallicFactor": 0.0,
        "roughnessFactor": 0.552786
      }
    },
    {
      "doubleSided": true,
      "name": "M_OMS-847-025_0.5",
      "pbrMetallicRoughness": {
        "baseColorTexture": {
          "index": 2
        },
        "metallicFactor": 0.0,
        "roughnessFactor": 0.552786
      }
    }
  ],
  "meshes": [
    {
      "name": "Object_0",
      "primitives": [
        {
          "attributes": {
            "NORMAL": 1,
            "POSITION": 0,
            "TEXCOORD_0": 2,
            "TEXCOORD_1": 3
          },
          "indices": 4,
          "material": 0,
          "mode": 4
        }
      ]
    },
    {
      "name": "Object_1",
      "primitives": [
        {
          "attributes": {
            "NORMAL": 6,
            "POSITION": 5,
            "TEXCOORD_0": 7,
            "TEXCOORD_1": 8
          },
          "indices": 9,
          "material": 1,
          "mode": 4
        }
      ]
    },
    {
      "name": "Object_2",
      "primitives": [
        {
          "attributes": {
            "NORMAL": 11,
            "POSITION": 10,
            "TEXCOORD_0": 12,
            "TEXCOORD_1": 13
          },
          "indices": 14,
          "material": 1,
          "mode": 4
        }
      ]
    },
    {
      "name": "Object_3",
      "primitives": [
        {
          "attributes": {
            "NORMAL": 16,
            "POSITION": 15,
            "TEXCOORD_0": 17,
            "TEXCOORD_1": 18
          },
          "indices": 19,
          "material": 2,
          "mode": 4
        }
      ]
    }
  ],
  "nodes": [
    {
      "children": [
        1
      ],
      "matrix": [
        1.0,
        0.0,
        0.0,
        0.0,
        0.0,
        2.220446049250313e-16,
        -1.0,
        0.0,
        0.0,
        1.0,
        2.220446049250313e-16,
        0.0,
        0.0,
        0.0,
        0.0,
        1.0
      ],
      "name": "Sketchfab_model"
    },
    {
      "children": [
        2
      ],
      "name": "root"
    },
    {
      "children": [
        3
      ],
      "matrix": [
        1.0,
        0.0,
        0.0,
        0.0,
        0.0,
        2.220446049250313e-16,
        1.0,
        0.0,
        0.0,
        -1.0,
        2.220446049250313e-16,
        0.0,
        0.0,
        0.0,
        0.0,
        1.0
      ],
      "name": "GLTF_SceneRootNode"
    },
    {
      "children": [
        4,
        5,
        6,
        7
      ],
      "name": "OMS-847-025_0"
    },
    {
      "mesh": 0,
      "name": "Object_4"
    },
    {
      "mesh": 1,
      "name": "Object_5"
    },
    {
      "mesh": 2,
      "name": "Object_6"
    },
    {
      "mesh": 3,
      "name": "Object_7"
    }
  ],
  "samplers": [
    {
      "magFilter": 9729,
      "minFilter": 9987,
      "wrapS": 10497,
      "wrapT": 10497
    },
    {
      "magFilter": 9729,
      "minFilter": 9987,
      "wrapS": 33071,
      "wrapT": 33071
    }
  ],
  "scene": 0,
  "scenes": [
    {
      "name": "Sketchfab_Scene",
      "nodes": [
        0
      ]
    }
  ],
  "textures": [
    {
      "sampler": 0,
      "source": 0
    },
    {
      "sampler": 0,
      "source": 1
    },
    {
      "sampler": 1,
      "source": 0
    }
  ]
}
