{
    "asset" : {
        "generator" : "Khronos glTF Blender I/O v3.3.27",
        "version" : "2.0"
    },
    "extensionsUsed" : [
        "KHR_materials_transmission"
    ],
    "scene" : 0,
    "scenes" : [
        {
            "name" : "Scene",
            "nodes" : [
                10
            ]
        }
    ],
    "nodes" : [
        {
            "mesh" : 0,
            "name" : "Object_10"
        },
        {
            "mesh" : 1,
            "name" : "Object_4"
        },
        {
            "mesh" : 2,
            "name" : "Object_5"
        },
        {
            "mesh" : 3,
            "name" : "Object_6"
        },
        {
            "mesh" : 4,
            "name" : "Object_7"
        },
        {
            "mesh" : 5,
            "name" : "Object_8"
        },
        {
            "mesh" : 6,
            "name" : "Object_9"
        },
        {
            "children" : [
                0,
                1,
                2,
                3,
                4,
                5,
                6
            ],
            "name" : "P36-0251_0"
        },
        {
            "children" : [
                7
            ],
            "name" : "GLTF_SceneRootNode",
            "rotation" : [
                0.7071068286895752,
                0,
                0,
                0.7071067094802856
            ]
        },
        {
            "children" : [
                8
            ],
            "name" : "root"
        },
        {
            "children" : [
                9
            ],
            "name" : "Sketchfab_model",
            "rotation" : [
                -0.7071068286895752,
                0,
                0,
                0.7071067094802856
            ],
            "scale" : [
                0.03999999910593033,
                0.04000000283122063,
                0.04000000283122063
            ]
        }
    ],
    "materials" : [
        {
            "doubleSided" : true,
            "name" : "M_WindowsBack.001",
            "pbrMetallicRoughness" : {
                "baseColorTexture" : {
                    "index" : 0
                },
                "metallicFactor" : 0,
                "roughnessFactor" : 0.5
            }
        },
        {
            "doubleSided" : true,
            "name" : "M_P36-0251_01",
            "pbrMetallicRoughness" : {
                "baseColorTexture" : {
                    "index" : 1
                },
                "metallicFactor" : 0,
                "roughnessFactor" : 0.5527859926223755
            }
        },
        {
            "doubleSided" : true,
            "name" : "M_P36-0251_02",
            "pbrMetallicRoughness" : {
                "baseColorTexture" : {
                    "index" : 2
                },
                "metallicFactor" : 0,
                "roughnessFactor" : 0.5527859926223755
            }
        },
        {
            "doubleSided" : true,
            "name" : "M_P36-0251_03",
            "pbrMetallicRoughness" : {
                "baseColorTexture" : {
                    "index" : 3
                },
                "metallicFactor" : 0,
                "roughnessFactor" : 0.5527859926223755
            }
        },
        {
            "alphaMode" : "BLEND",
            "doubleSided" : true,
            "extensions" : {
                "KHR_materials_transmission" : {
                    "transmissionFactor" : 1
                }
            },
            "name" : "M_GlassTrans.001",
            "pbrMetallicRoughness" : {
                "baseColorFactor" : [
                    0.2965109944343567,
                    0.2965109944343567,
                    0.2965109944343567,
                    0.25
                ],
                "metallicFactor" : 0.2227270007133484,
                "roughnessFactor" : 0
            }
        }
    ],
    "meshes" : [
        {
            "name" : "Object_6.001",
            "primitives" : [
                {
                    "attributes" : {
                        "POSITION" : 0,
                        "NORMAL" : 1,
                        "TEXCOORD_0" : 2
                    },
                    "indices" : 3,
                    "material" : 0
                }
            ]
        },
        {
            "name" : "Object_0.002",
            "primitives" : [
                {
                    "attributes" : {
                        "POSITION" : 4,
                        "NORMAL" : 5,
                        "TEXCOORD_0" : 6
                    },
                    "indices" : 7,
                    "material" : 1
                }
            ]
        },
        {
            "name" : "Object_1.002",
            "primitives" : [
                {
                    "attributes" : {
                        "POSITION" : 8,
                        "NORMAL" : 9,
                        "TEXCOORD_0" : 10
                    },
                    "indices" : 11,
                    "material" : 2
                }
            ]
        },
        {
            "name" : "Object_2.002",
            "primitives" : [
                {
                    "attributes" : {
                        "POSITION" : 12,
                        "NORMAL" : 13,
                        "TEXCOORD_0" : 14
                    },
                    "indices" : 15,
                    "material" : 2
                }
            ]
        },
        {
            "name" : "Object_3.001",
            "primitives" : [
                {
                    "attributes" : {
                        "POSITION" : 16,
                        "NORMAL" : 17,
                        "TEXCOORD_0" : 18
                    },
                    "indices" : 19,
                    "material" : 3
                }
            ]
        },
        {
            "name" : "Object_4.001",
            "primitives" : [
                {
                    "attributes" : {
                        "POSITION" : 20,
                        "NORMAL" : 21,
                        "TEXCOORD_0" : 22
                    },
                    "indices" : 23,
                    "material" : 3
                }
            ]
        },
        {
            "name" : "Object_5.001",
            "primitives" : [
                {
                    "attributes" : {
                        "POSITION" : 24,
                        "NORMAL" : 25,
                        "TEXCOORD_0" : 26
                    },
                    "indices" : 27,
                    "material" : 4
                }
            ]
        }
    ],
    "textures" : [
        {
            "sampler" : 0,
            "source" : 0
        },
        {
            "sampler" : 0,
            "source" : 1
        },
        {
            "sampler" : 0,
            "source" : 2
        },
        {
            "sampler" : 0,
            "source" : 3
        }
    ],
    "images" : [
        {
            "mimeType" : "image/png",
            "name" : "Image_3",
            "uri" : "textures/Image_3.png"
        },
        {
            "mimeType" : "image/png",
            "name" : "Image_0",
            "uri" : "textures/Image_0.png"
        },
        {
            "mimeType" : "image/png",
            "name" : "Image_1",
            "uri" : "textures/Image_1.png"
        },
        {
            "mimeType" : "image/png",
            "name" : "Image_2",
            "uri" : "textures/Image_2.png"
        }
    ],
    "accessors" : [
        {
            "bufferView" : 0,
            "componentType" : 5126,
            "count" : 235,
            "max" : [
                14.292398452758789,
                4.771384239196777,
                1.594282627105713
            ],
            "min" : [
                -14.2250394821167,
                1.5675787925720215,
                -1.58158540725708
            ],
            "type" : "VEC3"
        },
        {
            "bufferView" : 1,
            "componentType" : 5126,
            "count" : 235,
            "type" : "VEC3"
        },
        {
            "bufferView" : 2,
            "componentType" : 5126,
            "count" : 235,
            "type" : "VEC2"
        },
        {
            "bufferView" : 3,
            "componentType" : 5123,
            "count" : 888,
            "type" : "SCALAR"
        },
        {
            "bufferView" : 4,
            "componentType" : 5126,
            "count" : 6854,
            "max" : [
                14.198208808898926,
                5.121953964233398,
                1.5731589794158936
            ],
            "min" : [
                -2.4567763805389404,
                0.043698448687791824,
                -1.5621495246887207
            ],
            "type" : "VEC3"
        },
        {
            "bufferView" : 5,
            "componentType" : 5126,
            "count" : 6854,
            "type" : "VEC3"
        },
        {
            "bufferView" : 6,
            "componentType" : 5126,
            "count" : 6854,
            "type" : "VEC2"
        },
        {
            "bufferView" : 7,
            "componentType" : 5123,
            "count" : 22494,
            "type" : "SCALAR"
        },
        {
            "bufferView" : 8,
            "componentType" : 5126,
            "count" : 106683,
            "max" : [
                14.794159889221191,
                4.653629779815674,
                1.6220133304595947
            ],
            "min" : [
                -1.3271417617797852,
                0.17381158471107483,
                -1.6110035181045532
            ],
            "type" : "VEC3"
        },
        {
            "bufferView" : 9,
            "componentType" : 5126,
            "count" : 106683,
            "type" : "VEC3"
        },
        {
            "bufferView" : 10,
            "componentType" : 5126,
            "count" : 106683,
            "type" : "VEC2"
        },
        {
            "bufferView" : 11,
            "componentType" : 5125,
            "count" : 225672,
            "type" : "SCALAR"
        },
        {
            "bufferView" : 12,
            "componentType" : 5126,
            "count" : 64643,
            "max" : [
                14.434194564819336,
                5.1380462646484375,
                1.6294012069702148
            ],
            "min" : [
                -2.483262300491333,
                0.42542606592178345,
                -1.6183897256851196
            ],
            "type" : "VEC3"
        },
        {
            "bufferView" : 13,
            "componentType" : 5126,
            "count" : 64643,
            "type" : "VEC3"
        },
        {
            "bufferView" : 14,
            "componentType" : 5126,
            "count" : 64643,
            "type" : "VEC2"
        },
        {
            "bufferView" : 15,
            "componentType" : 5123,
            "count" : 146178,
            "type" : "SCALAR"
        },
        {
            "bufferView" : 16,
            "componentType" : 5126,
            "count" : 129563,
            "max" : [
                13.830863952636719,
                4.52691125869751,
                1.5770645141601562
            ],
            "min" : [
                -14.664946556091309,
                -0.02375238761305809,
                -1.5660524368286133
            ],
            "type" : "VEC3"
        },
        {
            "bufferView" : 17,
            "componentType" : 5126,
            "count" : 129563,
            "type" : "VEC3"
        },
        {
            "bufferView" : 18,
            "componentType" : 5126,
            "count" : 129563,
            "type" : "VEC2"
        },
        {
            "bufferView" : 19,
            "componentType" : 5125,
            "count" : 242982,
            "type" : "SCALAR"
        },
        {
            "bufferView" : 20,
            "componentType" : 5126,
            "count" : 46247,
            "max" : [
                13.746122360229492,
                3.7716307640075684,
                1.6007293462753296
            ],
            "min" : [
                -14.787809371948242,
                -0.030136218294501305,
                -1.5897154808044434
            ],
            "type" : "VEC3"
        },
        {
            "bufferView" : 21,
            "componentType" : 5126,
            "count" : 46247,
            "type" : "VEC3"
        },
        {
            "bufferView" : 22,
            "componentType" : 5126,
            "count" : 46247,
            "type" : "VEC2"
        },
        {
            "bufferView" : 23,
            "componentType" : 5123,
            "count" : 103314,
            "type" : "SCALAR"
        },
        {
            "bufferView" : 24,
            "componentType" : 5126,
            "count" : 600,
            "max" : [
                14.277743339538574,
                4.765885353088379,
                1.5816549062728882
            ],
            "min" : [
                -14.223346710205078,
                1.5717426538467407,
                -1.5641273260116577
            ],
            "type" : "VEC3"
        },
        {
            "bufferView" : 25,
            "componentType" : 5126,
            "count" : 600,
            "type" : "VEC3"
        },
        {
            "bufferView" : 26,
            "componentType" : 5126,
            "count" : 600,
            "type" : "VEC2"
        },
        {
            "bufferView" : 27,
            "componentType" : 5123,
            "count" : 936,
            "type" : "SCALAR"
        }
    ],
    "bufferViews" : [
        {
            "buffer" : 0,
            "byteLength" : 2820,
            "byteOffset" : 0,
            "target" : 34962
        },
        {
            "buffer" : 0,
            "byteLength" : 2820,
            "byteOffset" : 2820,
            "target" : 34962
        },
        {
            "buffer" : 0,
            "byteLength" : 1880,
            "byteOffset" : 5640,
            "target" : 34962
        },
        {
            "buffer" : 0,
            "byteLength" : 1776,
            "byteOffset" : 7520,
            "target" : 34963
        },
        {
            "buffer" : 0,
            "byteLength" : 82248,
            "byteOffset" : 9296,
            "target" : 34962
        },
        {
            "buffer" : 0,
            "byteLength" : 82248,
            "byteOffset" : 91544,
            "target" : 34962
        },
        {
            "buffer" : 0,
            "byteLength" : 54832,
            "byteOffset" : 173792,
            "target" : 34962
        },
        {
            "buffer" : 0,
            "byteLength" : 44988,
            "byteOffset" : 228624,
            "target" : 34963
        },
        {
            "buffer" : 0,
            "byteLength" : 1280196,
            "byteOffset" : 273612,
            "target" : 34962
        },
        {
            "buffer" : 0,
            "byteLength" : 1280196,
            "byteOffset" : 1553808,
            "target" : 34962
        },
        {
            "buffer" : 0,
            "byteLength" : 853464,
            "byteOffset" : 2834004,
            "target" : 34962
        },
        {
            "buffer" : 0,
            "byteLength" : 902688,
            "byteOffset" : 3687468,
            "target" : 34963
        },
        {
            "buffer" : 0,
            "byteLength" : 775716,
            "byteOffset" : 4590156,
            "target" : 34962
        },
        {
            "buffer" : 0,
            "byteLength" : 775716,
            "byteOffset" : 5365872,
            "target" : 34962
        },
        {
            "buffer" : 0,
            "byteLength" : 517144,
            "byteOffset" : 6141588,
            "target" : 34962
        },
        {
            "buffer" : 0,
            "byteLength" : 292356,
            "byteOffset" : 6658732,
            "target" : 34963
        },
        {
            "buffer" : 0,
            "byteLength" : 1554756,
            "byteOffset" : 6951088,
            "target" : 34962
        },
        {
            "buffer" : 0,
            "byteLength" : 1554756,
            "byteOffset" : 8505844,
            "target" : 34962
        },
        {
            "buffer" : 0,
            "byteLength" : 1036504,
            "byteOffset" : 10060600,
            "target" : 34962
        },
        {
            "buffer" : 0,
            "byteLength" : 971928,
            "byteOffset" : 11097104,
            "target" : 34963
        },
        {
            "buffer" : 0,
            "byteLength" : 554964,
            "byteOffset" : 12069032,
            "target" : 34962
        },
        {
            "buffer" : 0,
            "byteLength" : 554964,
            "byteOffset" : 12623996,
            "target" : 34962
        },
        {
            "buffer" : 0,
            "byteLength" : 369976,
            "byteOffset" : 13178960,
            "target" : 34962
        },
        {
            "buffer" : 0,
            "byteLength" : 206628,
            "byteOffset" : 13548936,
            "target" : 34963
        },
        {
            "buffer" : 0,
            "byteLength" : 7200,
            "byteOffset" : 13755564,
            "target" : 34962
        },
        {
            "buffer" : 0,
            "byteLength" : 7200,
            "byteOffset" : 13762764,
            "target" : 34962
        },
        {
            "buffer" : 0,
            "byteLength" : 4800,
            "byteOffset" : 13769964,
            "target" : 34962
        },
        {
            "buffer" : 0,
            "byteLength" : 1872,
            "byteOffset" : 13774764,
            "target" : 34963
        }
    ],
    "samplers" : [
        {
            "magFilter" : 9729,
            "minFilter" : 9987
        }
    ],
    "buffers" : [
        {
            "byteLength" : 13776636,
            "uri" : "scene.bin"
        }
    ]
}
