{
  "accessors": [
    {
      "bufferView": 2,
      "componentType": 5126,
      "count": 11646,
      "max": [
        8.570944786071777,
        4.922804355621338,
        1.701371192932129
      ],
      "min": [
        -9.18880558013916,
        1.0313345193862915,
        -1.5565000772476196
      ],
      "type": "VEC3"
    },
    {
      "bufferView": 2,
      "byteOffset": 139752,
      "componentType": 5126,
      "count": 11646,
      "max": [
        1.0,
        1.0,
        1.0
      ],
      "min": [
        -1.0,
        -1.0,
        -1.0
      ],
      "type": "VEC3"
    },
    {
      "bufferView": 1,
      "componentType": 5126,
      "count": 11646,
      "max": [
        0.9950000047683716,
        0.9638999700546265
      ],
      "min": [
        0.006000000052154064,
        0.00700002908706665
      ],
      "type": "VEC2"
    },
    {
      "bufferView": 0,
      "componentType": 5125,
      "count": 12282,
      "type": "SCALAR"
    },
    {
      "bufferView": 2,
      "byteOffset": 279504,
      "componentType": 5126,
      "count": 65532,
      "max": [
        8.608814239501953,
        4.09950065612793,
        1.6938611268997192
      ],
      "min": [
        -8.96120548248291,
        -0.05863499641418457,
        -1.305819034576416
      ],
      "type": "VEC3"
    },
    {
      "bufferView": 2,
      "byteOffset": 1065888,
      "componentType": 5126,
      "count": 65532,
      "max": [
        1.0,
        1.0,
        1.0
      ],
      "min": [
        -1.0,
        -1.0,
        -1.0
      ],
      "type": "VEC3"
    },
    {
      "bufferView": 1,
      "byteOffset": 93168,
      "componentType": 5126,
      "count": 65532,
      "max": [
        0.9976000189781189,
        0.9887999892234802
      ],
      "min": [
        0.0037992920260876417,
        0.0018000006675720215
      ],
      "type": "VEC2"
    },
    {
      "bufferView": 0,
      "byteOffset": 49128,
      "componentType": 5125,
      "count": 67152,
      "type": "SCALAR"
    },
    {
      "bufferView": 2,
      "byteOffset": 1852272,
      "componentType": 5126,
      "count": 65534,
      "max": [
        9.521655082702637,
        4.470329284667969,
        1.5236313343048096
      ],
      "min": [
        -9.685446739196777,
        -0.05863538384437561,
        -1.396148920059204
      ],
      "type": "VEC3"
    },
    {
      "bufferView": 2,
      "byteOffset": 2638680,
      "componentType": 5126,
      "count": 65534,
      "max": [
        1.0,
        1.0,
        1.0
      ],
      "min": [
        -1.0,
        -1.0,
        -1.0
      ],
      "type": "VEC3"
    },
    {
      "bufferView": 1,
      "byteOffset": 617424,
      "componentType": 5126,
      "count": 65534,
      "max": [
        0.9908000230789185,
        0.9962000250816345
      ],
      "min": [
        0.004999999888241291,
        0.045400023460388184
      ],
      "type": "VEC2"
    },
    {
      "bufferView": 0,
      "byteOffset": 317736,
      "componentType": 5125,
      "count": 67953,
      "type": "SCALAR"
    },
    {
      "bufferView": 2,
      "byteOffset": 3425088,
      "componentType": 5126,
      "count": 65533,
      "max": [
        9.24475383758545,
        4.776084899902344,
        1.6865313053131104
      ],
      "min": [
        -9.585856437683105,
        0.21289487183094025,
        -1.5473694801330566
      ],
      "type": "VEC3"
    },
    {
      "bufferView": 2,
      "byteOffset": 4211484,
      "componentType": 5126,
      "count": 65533,
      "max": [
        1.0,
        1.0,
        1.0
      ],
      "min": [
        -1.0,
        -1.0,
        -1.0
      ],
      "type": "VEC3"
    },
    {
      "bufferView": 1,
      "byteOffset": 1141696,
      "componentType": 5126,
      "count": 65533,
      "max": [
        1.8725999593734741,
        1.0081000328063965
      ],
      "min": [
        0.003800000064074993,
        0.23100000619888306
      ],
      "type": "VEC2"
    },
    {
      "bufferView": 0,
      "byteOffset": 589548,
      "componentType": 5125,
      "count": 70245,
      "type": "SCALAR"
    },
    {
      "bufferView": 2,
      "byteOffset": 4997880,
      "componentType": 5126,
      "count": 65533,
      "max": [
        9.685454368591309,
        4.850513935089111,
        1.7709400653839111
      ],
      "min": [
        -9.478285789489746,
        -0.05863538384437561,
        -1.6223702430725098
      ],
      "type": "VEC3"
    },
    {
      "bufferView": 2,
      "byteOffset": 5784276,
      "componentType": 5126,
      "count": 65533,
      "max": [
        1.0,
        1.0,
        1.0
      ],
      "min": [
        -1.0,
        -1.0,
        -1.0
      ],
      "type": "VEC3"
    },
    {
      "bufferView": 1,
      "byteOffset": 1665960,
      "componentType": 5126,
      "count": 65533,
      "max": [
        1.8725999593734741,
        1.0081000328063965
      ],
      "min": [
        0.006000000052154064,
        0.045400023460388184
      ],
      "type": "VEC2"
    },
    {
      "bufferView": 0,
      "byteOffset": 870528,
      "componentType": 5125,
      "count": 67944,
      "type": "SCALAR"
    },
    {
      "bufferView": 2,
      "byteOffset": 6570672,
      "componentType": 5126,
      "count": 65534,
      "max": [
        -3.667475700378418,
        0.9905946850776672,
        1.3058100938796997
      ],
      "min": [
        -7.161515235900879,
        -0.05863548815250397,
        -1.701239824295044
      ],
      "type": "VEC3"
    },
    {
      "bufferView": 2,
      "byteOffset": 7357080,
      "componentType": 5126,
      "count": 65534,
      "max": [
        1.0,
        1.0,
        1.0
      ],
      "min": [
        -1.0,
        -1.0,
        -1.0
      ],
      "type": "VEC3"
    },
    {
      "bufferView": 1,
      "byteOffset": 2190224,
      "componentType": 5126,
      "count": 65534,
      "max": [
        0.9976000189781189,
        0.9861999750137329
      ],
      "min": [
        0.006099999882280827,
        0.0018000006675720215
      ],
      "type": "VEC2"
    },
    {
      "bufferView": 0,
      "byteOffset": 1142304,
      "componentType": 5125,
      "count": 66987,
      "type": "SCALAR"
    },
    {
      "bufferView": 2,
      "byteOffset": 8143488,
      "componentType": 5126,
      "count": 65533,
      "max": [
        7.887114524841309,
        1.0076351165771484,
        1.6938602924346924
      ],
      "min": [
        -7.381415367126465,
        -0.05863489210605621,
        -1.284118890762329
      ],
      "type": "VEC3"
    },
    {
      "bufferView": 2,
      "byteOffset": 8929884,
      "componentType": 5126,
      "count": 65533,
      "max": [
        1.0,
        1.0,
        1.0
      ],
      "min": [
        -1.0,
        -1.0,
        -1.0
      ],
      "type": "VEC3"
    },
    {
      "bufferView": 1,
      "byteOffset": 2714496,
      "componentType": 5126,
      "count": 65533,
      "max": [
        0.9976000189781189,
        0.9887999892234802
      ],
      "min": [
        0.006000000052154064,
        0.0018000006675720215
      ],
      "type": "VEC2"
    },
    {
      "bufferView": 0,
      "byteOffset": 1410252,
      "componentType": 5125,
      "count": 66924,
      "type": "SCALAR"
    },
    {
      "bufferView": 2,
      "byteOffset": 9716280,
      "componentType": 5126,
      "count": 39559,
      "max": [
        7.621085166931152,
        0.9905951619148254,
        -0.9708088636398315
      ],
      "min": [
        5.285435676574707,
        0.20877505838871002,
        -1.701238989830017
      ],
      "type": "VEC3"
    },
    {
      "bufferView": 2,
      "byteOffset": 10190988,
      "componentType": 5126,
      "count": 39559,
      "max": [
        1.0,
        1.0,
        1.0
      ],
      "min": [
        -1.0,
        -1.0,
        -1.0
      ],
      "type": "VEC3"
    },
    {
      "bufferView": 1,
      "byteOffset": 3238760,
      "componentType": 5126,
      "count": 39559,
      "max": [
        0.9976000189781189,
        0.9861999750137329
      ],
      "min": [
        0.006099999882280827,
        0.0018000006675720215
      ],
      "type": "VEC2"
    },
    {
      "bufferView": 0,
      "byteOffset": 1677948,
      "componentType": 5125,
      "count": 40314,
      "type": "SCALAR"
    },
    {
      "bufferView": 2,
      "byteOffset": 10665696,
      "componentType": 5126,
      "count": 416,
      "max": [
        8.582674980163574,
        3.4598751068115234,
        1.6600111722946167
      ],
      "min": [
        -8.76860523223877,
        1.7978651523590088,
        -1.5020999908447266
      ],
      "type": "VEC3"
    },
    {
      "bufferView": 2,
      "byteOffset": 10670688,
      "componentType": 5126,
      "count": 416,
      "max": [
        1.0,
        1.0,
        1.0
      ],
      "min": [
        -1.0,
        -1.0,
        -1.0
      ],
      "type": "VEC3"
    },
    {
      "bufferView": 1,
      "byteOffset": 3555232,
      "componentType": 5126,
      "count": 416,
      "max": [
        1.0,
        1.0
      ],
      "min": [
        0.0,
        0.0
      ],
      "type": "VEC2"
    },
    {
      "bufferView": 0,
      "byteOffset": 1839204,
      "componentType": 5125,
      "count": 612,
      "type": "SCALAR"
    },
    {
      "bufferView": 2,
      "byteOffset": 10675680,
      "componentType": 5126,
      "count": 224,
      "max": [
        8.6094970703125,
        3.4692046642303467,
        1.6761248111724854
      ],
      "min": [
        -8.767852783203125,
        1.6882054805755615,
        -1.533484697341919
      ],
      "type": "VEC3"
    },
    {
      "bufferView": 2,
      "byteOffset": 10678368,
      "componentType": 5126,
      "count": 224,
      "max": [
        0.7071071863174438,
        0.70710688829422,
        0.7071069478988647
      ],
      "min": [
        -0.7071078419685364,
        -0.7071071863174438,
        -0.7071070075035095
      ],
      "type": "VEC3"
    },
    {
      "bufferView": 1,
      "byteOffset": 3558560,
      "componentType": 5126,
      "count": 224,
      "max": [
        0.9956616163253784,
        0.9956642985343933
      ],
      "min": [
        0.004326043650507927,
        0.004328489303588867
      ],
      "type": "VEC2"
    },
    {
      "bufferView": 0,
      "byteOffset": 1841652,
      "componentType": 5125,
      "count": 840,
      "type": "SCALAR"
    }
  ],
  "asset": {
    "extras": {
      "author": "art.piskov (https://sketchfab.com/art.piskov)",
      "license": "CC-BY-4.0 (http://creativecommons.org/licenses/by/4.0/)",
      "source": "https://sketchfab.com/3d-models/jhgfdsddfg-3068f751909840f2806a5da95e454d6f",
      "title": "jhgfdsddfg"
    },
    "generator": "Sketchfab-14.41.0",
    "version": "2.0"
  },
  "bufferViews": [
    {
      "buffer": 0,
      "byteLength": 1845012,
      "name": "floatBufferViews",
      "target": 34963
    },
    {
      "buffer": 0,
      "byteLength": 3560352,
      "byteOffset": 1845012,
      "byteStride": 8,
      "name": "floatBufferViews",
      "target": 34962
    },
    {
      "buffer": 0,
      "byteLength": 10681056,
      "byteOffset": 5405364,
      "byteStride": 12,
      "name": "floatBufferViews",
      "target": 34962
    }
  ],
  "buffers": [
    {
      "byteLength": 16086420,
      "uri": "scene.bin"
    }
  ],
  "images": [
    {
      "uri": "textures/M_KVZD-3_01_baseColor.png"
    },
    {
      "uri": "textures/M_KVZD-3_02_baseColor.png"
    },
    {
      "uri": "textures/M_WindowsBack_baseColor.png"
    }
  ],
  "materials": [
    {
      "doubleSided": true,
      "name": "M_KVZD-3_01",
      "pbrMetallicRoughness": {
        "baseColorTexture": {
          "index": 0
        },
        "metallicFactor": 0.0,
        "roughnessFactor": 0.552786
      }
    },
    {
      "doubleSided": true,
      "name": "M_KVZD-3_02",
      "pbrMetallicRoughness": {
        "baseColorTexture": {
          "index": 1
        },
        "metallicFactor": 0.0,
        "roughnessFactor": 0.552786
      }
    },
    {
      "doubleSided": true,
      "name": "M_GlassTrans",
      "pbrMetallicRoughness": {
        "baseColorFactor": [
          0.013314292935956682,
          0.013314292935956682,
          0.013314292935956682,
          1.0
        ],
        "metallicFactor": 0.222727,
        "roughnessFactor": 0.0
      }
    },
    {
      "doubleSided": true,
      "name": "M_WindowsBack",
      "pbrMetallicRoughness": {
        "baseColorTexture": {
          "index": 2
        },
        "metallicFactor": 0.0,
        "roughnessFactor": 0.5
      }
    }
  ],
  "meshes": [
    {
      "name": "Object_0",
      "primitives": [
        {
          "attributes": {
            "NORMAL": 1,
            "POSITION": 0,
            "TEXCOORD_0": 2
          },
          "indices": 3,
          "material": 0,
          "mode": 4
        }
      ]
    },
    {
      "name": "Object_1",
      "primitives": [
        {
          "attributes": {
            "NORMAL": 5,
            "POSITION": 4,
            "TEXCOORD_0": 6
          },
          "indices": 7,
          "material": 1,
          "mode": 4
        }
      ]
    },
    {
      "name": "Object_2",
      "primitives": [
        {
          "attributes": {
            "NORMAL": 9,
            "POSITION": 8,
            "TEXCOORD_0": 10
          },
          "indices": 11,
          "material": 1,
          "mode": 4
        }
      ]
    },
    {
      "name": "Object_3",
      "primitives": [
        {
          "attributes": {
            "NORMAL": 13,
            "POSITION": 12,
            "TEXCOORD_0": 14
          },
          "indices": 15,
          "material": 1,
          "mode": 4
        }
      ]
    },
    {
      "name": "Object_4",
      "primitives": [
        {
          "attributes": {
            "NORMAL": 17,
            "POSITION": 16,
            "TEXCOORD_0": 18
          },
          "indices": 19,
          "material": 1,
          "mode": 4
        }
      ]
    },
    {
      "name": "Object_5",
      "primitives": [
        {
          "attributes": {
            "NORMAL": 21,
            "POSITION": 20,
            "TEXCOORD_0": 22
          },
          "indices": 23,
          "material": 1,
          "mode": 4
        }
      ]
    },
    {
      "name": "Object_6",
      "primitives": [
        {
          "attributes": {
            "NORMAL": 25,
            "POSITION": 24,
            "TEXCOORD_0": 26
          },
          "indices": 27,
          "material": 1,
          "mode": 4
        }
      ]
    },
    {
      "name": "Object_7",
      "primitives": [
        {
          "attributes": {
            "NORMAL": 29,
            "POSITION": 28,
            "TEXCOORD_0": 30
          },
          "indices": 31,
          "material": 1,
          "mode": 4
        }
      ]
    },
    {
      "name": "Object_8",
      "primitives": [
        {
          "attributes": {
            "NORMAL": 33,
            "POSITION": 32,
            "TEXCOORD_0": 34
          },
          "indices": 35,
          "material": 2,
          "mode": 4
        }
      ]
    },
    {
      "name": "Object_9",
      "primitives": [
        {
          "attributes": {
            "NORMAL": 37,
            "POSITION": 36,
            "TEXCOORD_0": 38
          },
          "indices": 39,
          "material": 3,
          "mode": 4
        }
      ]
    }
  ],
  "nodes": [
    {
      "children": [
        1
      ],
      "matrix": [
        0.015384615398943424,
        0.0,
        0.0,
        0.0,
        0.0,
        3.4160708481819456e-18,
        -0.015384615398943424,
        0.0,
        0.0,
        0.015384615398943424,
        3.4160708481819456e-18,
        0.0,
        0.0,
        0.0,
        0.0,
        1.0
      ],
      "name": "Sketchfab_model"
    },
    {
      "children": [
        2
      ],
      "name": "root"
    },
    {
      "children": [
        3
      ],
      "matrix": [
        1.0,
        0.0,
        0.0,
        0.0,
        0.0,
        2.220446049250313e-16,
        1.0,
        0.0,
        0.0,
        -1.0,
        2.220446049250313e-16,
        0.0,
        0.0,
        0.0,
        0.0,
        1.0
      ],
      "name": "GLTF_SceneRootNode"
    },
    {
      "children": [
        4,
        5,
        6,
        7,
        8,
        9,
        10,
        11,
        12,
        13
      ],
      "name": "KVZD-3_0"
    },
    {
      "mesh": 0,
      "name": "Object_4"
    },
    {
      "mesh": 1,
      "name": "Object_5"
    },
    {
      "mesh": 2,
      "name": "Object_6"
    },
    {
      "mesh": 3,
      "name": "Object_7"
    },
    {
      "mesh": 4,
      "name": "Object_8"
    },
    {
      "mesh": 5,
      "name": "Object_9"
    },
    {
      "mesh": 6,
      "name": "Object_10"
    },
    {
      "mesh": 7,
      "name": "Object_11"
    },
    {
      "mesh": 8,
      "name": "Object_12"
    },
    {
      "mesh": 9,
      "name": "Object_13"
    }
  ],
  "samplers": [
    {
      "magFilter": 9729,
      "minFilter": 9987,
      "wrapS": 10497,
      "wrapT": 10497
    }
  ],
  "scene": 0,
  "scenes": [
    {
      "name": "Sketchfab_Scene",
      "nodes": [
        0
      ]
    }
  ],
  "textures": [
    {
      "sampler": 0,
      "source": 0
    },
    {
      "sampler": 0,
      "source": 1
    },
    {
      "sampler": 0,
      "source": 2
    }
  ]
}
