{
  "accessors": [
    {
      "bufferView": 2,
      "componentType": 5126,
      "count": 65532,
      "max": [
        6.665351390838623,
        4.760376930236816,
        1.555556297302246
      ],
      "min": [
        -6.665351390838623,
        2.016732692718506,
        -1.5555561780929565
      ],
      "type": "VEC3"
    },
    {
      "bufferView": 2,
      "byteOffset": 786384,
      "componentType": 5126,
      "count": 65532,
      "max": [
        1.0,
        1.0,
        1.0
      ],
      "min": [
        -1.0,
        -1.0,
        -1.0
      ],
      "type": "VEC3"
    },
    {
      "bufferView": 1,
      "componentType": 5126,
      "count": 65532,
      "max": [
        1.9968652725219727,
        0.9969919323921204
      ],
      "min": [
        0.009986698627471924,
        0.02372187376022339
      ],
      "type": "VEC2"
    },
    {
      "bufferView": 0,
      "componentType": 5125,
      "count": 67434,
      "type": "SCALAR"
    },
    {
      "bufferView": 2,
      "byteOffset": 1572768,
      "componentType": 5126,
      "count": 65534,
      "max": [
        6.751802921295166,
        4.843902587890625,
        1.6046689748764038
      ],
      "min": [
        -6.751803874969482,
        2.7529072761535645,
        -1.6046689748764038
      ],
      "type": "VEC3"
    },
    {
      "bufferView": 2,
      "byteOffset": 2359176,
      "componentType": 5126,
      "count": 65534,
      "max": [
        1.0,
        1.0,
        1.0
      ],
      "min": [
        -1.0,
        -1.0,
        -1.0
      ],
      "type": "VEC3"
    },
    {
      "bufferView": 1,
      "byteOffset": 524256,
      "componentType": 5126,
      "count": 65534,
      "max": [
        1.9969877004623413,
        0.9969918727874756
      ],
      "min": [
        0.0030091404914855957,
        0.008990943431854248
      ],
      "type": "VEC2"
    },
    {
      "bufferView": 0,
      "byteOffset": 269736,
      "componentType": 5125,
      "count": 69402,
      "type": "SCALAR"
    },
    {
      "bufferView": 2,
      "byteOffset": 3145584,
      "componentType": 5126,
      "count": 65534,
      "max": [
        6.686999320983887,
        4.843903541564941,
        1.5166202783584595
      ],
      "min": [
        -6.686999320983887,
        1.8289365768432617,
        -1.5166202783584595
      ],
      "type": "VEC3"
    },
    {
      "bufferView": 2,
      "byteOffset": 3931992,
      "componentType": 5126,
      "count": 65534,
      "max": [
        1.0,
        1.0,
        1.0
      ],
      "min": [
        -1.0,
        -1.0,
        -1.0
      ],
      "type": "VEC3"
    },
    {
      "bufferView": 1,
      "byteOffset": 1048528,
      "componentType": 5126,
      "count": 65534,
      "max": [
        1.9969897270202637,
        0.9969924688339233
      ],
      "min": [
        0.003007137216627598,
        0.008990943431854248
      ],
      "type": "VEC2"
    },
    {
      "bufferView": 0,
      "byteOffset": 547344,
      "componentType": 5125,
      "count": 69816,
      "type": "SCALAR"
    },
    {
      "bufferView": 2,
      "byteOffset": 4718400,
      "componentType": 5126,
      "count": 8058,
      "max": [
        -3.4700727462768555,
        4.629776954650879,
        0.5925351977348328
      ],
      "min": [
        -4.692016124725342,
        4.52429723739624,
        -0.592534601688385
      ],
      "type": "VEC3"
    },
    {
      "bufferView": 2,
      "byteOffset": 4815096,
      "componentType": 5126,
      "count": 8058,
      "max": [
        0.9857283234596252,
        0.9563157558441162,
        0.9562987089157104
      ],
      "min": [
        -0.8538177013397217,
        -0.9563043713569641,
        -0.9563102126121521
      ],
      "type": "VEC3"
    },
    {
      "bufferView": 1,
      "byteOffset": 1572800,
      "componentType": 5126,
      "count": 8058,
      "max": [
        1.6747047901153564,
        0.47895127534866333
      ],
      "min": [
        0.6734281778335571,
        0.3429942727088928
      ],
      "type": "VEC2"
    },
    {
      "bufferView": 0,
      "byteOffset": 826608,
      "componentType": 5125,
      "count": 8058,
      "type": "SCALAR"
    },
    {
      "bufferView": 2,
      "byteOffset": 4911792,
      "componentType": 5126,
      "count": 65532,
      "max": [
        8.667250633239746,
        4.453158855438232,
        1.557852864265442
      ],
      "min": [
        -8.255891799926758,
        0.01259592268615961,
        -1.557852864265442
      ],
      "type": "VEC3"
    },
    {
      "bufferView": 2,
      "byteOffset": 5698176,
      "componentType": 5126,
      "count": 65532,
      "max": [
        1.0,
        1.0,
        1.0
      ],
      "min": [
        -1.0,
        -1.0,
        -1.0
      ],
      "type": "VEC3"
    },
    {
      "bufferView": 1,
      "byteOffset": 1637264,
      "componentType": 5126,
      "count": 65532,
      "max": [
        1.996993064880371,
        0.9970012307167053
      ],
      "min": [
        0.0029998719692230225,
        0.0031867027282714844
      ],
      "type": "VEC2"
    },
    {
      "bufferView": 0,
      "byteOffset": 858840,
      "componentType": 5125,
      "count": 71478,
      "type": "SCALAR"
    },
    {
      "bufferView": 2,
      "byteOffset": 6484560,
      "componentType": 5126,
      "count": 65532,
      "max": [
        8.342415809631348,
        4.417346477508545,
        1.5377453565597534
      ],
      "min": [
        -8.211894989013672,
        0.1442534476518631,
        -1.5377453565597534
      ],
      "type": "VEC3"
    },
    {
      "bufferView": 2,
      "byteOffset": 7270944,
      "componentType": 5126,
      "count": 65532,
      "max": [
        1.0,
        1.0,
        1.0
      ],
      "min": [
        -1.0,
        -1.0,
        -1.0
      ],
      "type": "VEC3"
    },
    {
      "bufferView": 1,
      "byteOffset": 2161520,
      "componentType": 5126,
      "count": 65532,
      "max": [
        1.9948899745941162,
        0.9970012307167053
      ],
      "min": [
        0.0030050128698349,
        0.0031867027282714844
      ],
      "type": "VEC2"
    },
    {
      "bufferView": 0,
      "byteOffset": 1144752,
      "componentType": 5125,
      "count": 68754,
      "type": "SCALAR"
    },
    {
      "bufferView": 2,
      "byteOffset": 8057328,
      "componentType": 5126,
      "count": 65533,
      "max": [
        7.777925968170166,
        4.134151458740234,
        1.5932267904281616
      ],
      "min": [
        -8.667757034301758,
        -0.045086849480867386,
        -1.593226671218872
      ],
      "type": "VEC3"
    },
    {
      "bufferView": 2,
      "byteOffset": 8843724,
      "componentType": 5126,
      "count": 65533,
      "max": [
        1.0,
        1.0,
        1.0
      ],
      "min": [
        -1.0,
        -1.0,
        -1.0
      ],
      "type": "VEC3"
    },
    {
      "bufferView": 1,
      "byteOffset": 2685776,
      "componentType": 5126,
      "count": 65533,
      "max": [
        1.9897619485855103,
        0.9970004558563232
      ],
      "min": [
        0.003000617027282715,
        0.010469496250152588
      ],
      "type": "VEC2"
    },
    {
      "bufferView": 0,
      "byteOffset": 1419768,
      "componentType": 5125,
      "count": 67488,
      "type": "SCALAR"
    },
    {
      "bufferView": 2,
      "byteOffset": 9630120,
      "componentType": 5126,
      "count": 65533,
      "max": [
        8.11249828338623,
        3.8520078659057617,
        1.5566582679748535
      ],
      "min": [
        -7.603539943695068,
        0.2884652018547058,
        -1.5566582679748535
      ],
      "type": "VEC3"
    },
    {
      "bufferView": 2,
      "byteOffset": 10416516,
      "componentType": 5126,
      "count": 65533,
      "max": [
        1.0,
        1.0,
        1.0
      ],
      "min": [
        -1.0,
        -1.0,
        -1.0
      ],
      "type": "VEC3"
    },
    {
      "bufferView": 1,
      "byteOffset": 3210040,
      "componentType": 5126,
      "count": 65533,
      "max": [
        1.9963057041168213,
        0.9970004558563232
      ],
      "min": [
        0.0029984747525304556,
        0.0030145645141601563
      ],
      "type": "VEC2"
    },
    {
      "bufferView": 0,
      "byteOffset": 1689720,
      "componentType": 5125,
      "count": 66900,
      "type": "SCALAR"
    },
    {
      "bufferView": 2,
      "byteOffset": 11202912,
      "componentType": 5126,
      "count": 65532,
      "max": [
        8.252606391906738,
        4.377383232116699,
        1.609326720237732
      ],
      "min": [
        -8.11578369140625,
        0.173628568649292,
        -1.609326720237732
      ],
      "type": "VEC3"
    },
    {
      "bufferView": 2,
      "byteOffset": 11989296,
      "componentType": 5126,
      "count": 65532,
      "max": [
        1.0,
        1.0,
        1.0
      ],
      "min": [
        -1.0,
        -1.0,
        -1.0
      ],
      "type": "VEC3"
    },
    {
      "bufferView": 1,
      "byteOffset": 3734304,
      "componentType": 5126,
      "count": 65532,
      "max": [
        1.9966237545013428,
        0.9969968795776367
      ],
      "min": [
        0.0030006656888872385,
        0.006666898727416992
      ],
      "type": "VEC2"
    },
    {
      "bufferView": 0,
      "byteOffset": 1957320,
      "componentType": 5125,
      "count": 68829,
      "type": "SCALAR"
    },
    {
      "bufferView": 2,
      "byteOffset": 12775680,
      "componentType": 5126,
      "count": 65532,
      "max": [
        8.112049102783203,
        3.952126979827881,
        1.5272996425628662
      ],
      "min": [
        -7.90316104888916,
        0.17310495674610138,
        -1.527299404144287
      ],
      "type": "VEC3"
    },
    {
      "bufferView": 2,
      "byteOffset": 13562064,
      "componentType": 5126,
      "count": 65532,
      "max": [
        1.0,
        1.0,
        1.0
      ],
      "min": [
        -1.0,
        -1.0,
        -1.0
      ],
      "type": "VEC3"
    },
    {
      "bufferView": 1,
      "byteOffset": 4258560,
      "componentType": 5126,
      "count": 65532,
      "max": [
        1.9922587871551514,
        0.9970002174377441
      ],
      "min": [
        0.0030018091201782227,
        0.006789088249206543
      ],
      "type": "VEC2"
    },
    {
      "bufferView": 0,
      "byteOffset": 2232636,
      "componentType": 5125,
      "count": 69525,
      "type": "SCALAR"
    },
    {
      "bufferView": 2,
      "byteOffset": 14348448,
      "componentType": 5126,
      "count": 65534,
      "max": [
        7.730320453643799,
        4.3918375968933105,
        1.5505599975585938
      ],
      "min": [
        -7.730319499969482,
        0.1590011566877365,
        -1.5505597591400146
      ],
      "type": "VEC3"
    },
    {
      "bufferView": 2,
      "byteOffset": 15134856,
      "componentType": 5126,
      "count": 65534,
      "max": [
        1.0,
        1.0,
        1.0
      ],
      "min": [
        -1.0,
        -1.0,
        -1.0
      ],
      "type": "VEC3"
    },
    {
      "bufferView": 1,
      "byteOffset": 4782816,
      "componentType": 5126,
      "count": 65534,
      "max": [
        1.9964289665222168,
        0.997001051902771
      ],
      "min": [
        0.0030004996806383133,
        0.005285084247589111
      ],
      "type": "VEC2"
    },
    {
      "bufferView": 0,
      "byteOffset": 2510736,
      "componentType": 5125,
      "count": 71085,
      "type": "SCALAR"
    },
    {
      "bufferView": 2,
      "byteOffset": 15921264,
      "componentType": 5126,
      "count": 65534,
      "max": [
        7.746827125549316,
        4.411035060882568,
        1.4727704524993896
      ],
      "min": [
        -8.342921257019043,
        -0.045086849480867386,
        -1.4727704524993896
      ],
      "type": "VEC3"
    },
    {
      "bufferView": 2,
      "byteOffset": 16707672,
      "componentType": 5126,
      "count": 65534,
      "max": [
        1.0,
        1.0,
        1.0
      ],
      "min": [
        -1.0,
        -1.0,
        -1.0
      ],
      "type": "VEC3"
    },
    {
      "bufferView": 1,
      "byteOffset": 5307088,
      "componentType": 5126,
      "count": 65534,
      "max": [
        1.992793321609497,
        0.9970002770423889
      ],
      "min": [
        0.014864444732666016,
        0.005032598972320557
      ],
      "type": "VEC2"
    },
    {
      "bufferView": 0,
      "byteOffset": 2795076,
      "componentType": 5125,
      "count": 67650,
      "type": "SCALAR"
    },
    {
      "bufferView": 2,
      "byteOffset": 17494080,
      "componentType": 5126,
      "count": 6165,
      "max": [
        -1.2236614227294922,
        1.2881628274917603,
        0.9551733732223511
      ],
      "min": [
        -6.729982376098633,
        -0.04508684203028679,
        -0.9551727771759033
      ],
      "type": "VEC3"
    },
    {
      "bufferView": 2,
      "byteOffset": 17568060,
      "componentType": 5126,
      "count": 6165,
      "max": [
        1.0,
        1.0,
        1.0
      ],
      "min": [
        -1.0,
        -1.0,
        -1.0
      ],
      "type": "VEC3"
    },
    {
      "bufferView": 1,
      "byteOffset": 5831360,
      "componentType": 5126,
      "count": 6165,
      "max": [
        1.8625506162643433,
        0.9969969987869263
      ],
      "min": [
        1.021183967590332,
        0.08952969312667847
      ],
      "type": "VEC2"
    },
    {
      "bufferView": 0,
      "byteOffset": 3065676,
      "componentType": 5125,
      "count": 6219,
      "type": "SCALAR"
    },
    {
      "bufferView": 2,
      "byteOffset": 17642040,
      "componentType": 5126,
      "count": 356,
      "max": [
        7.610584259033203,
        4.39661169052124,
        1.4989713430404663
      ],
      "min": [
        -7.610586166381836,
        2.0437076091766357,
        -1.4989712238311768
      ],
      "type": "VEC3"
    },
    {
      "bufferView": 2,
      "byteOffset": 17646312,
      "componentType": 5126,
      "count": 356,
      "max": [
        1.0,
        9.765775757841766e-05,
        1.0
      ],
      "min": [
        -1.0,
        -0.0003355685621500015,
        -1.0
      ],
      "type": "VEC3"
    },
    {
      "bufferView": 1,
      "byteOffset": 5880680,
      "componentType": 5126,
      "count": 356,
      "max": [
        1.993126392364502,
        0.997027575969696
      ],
      "min": [
        0.002977143507450819,
        0.0029730796813964844
      ],
      "type": "VEC2"
    },
    {
      "bufferView": 0,
      "byteOffset": 3090552,
      "componentType": 5125,
      "count": 480,
      "type": "SCALAR"
    },
    {
      "bufferView": 2,
      "byteOffset": 17650584,
      "componentType": 5126,
      "count": 112,
      "max": [
        6.628726959228516,
        3.6081674098968506,
        1.5110538005828857
      ],
      "min": [
        -6.628726959228516,
        2.780102014541626,
        -1.5110538005828857
      ],
      "type": "VEC3"
    },
    {
      "bufferView": 2,
      "byteOffset": 17651928,
      "componentType": 5126,
      "count": 112,
      "max": [
        0.7396948933601379,
        0.7071070671081543,
        0.7396953105926514
      ],
      "min": [
        -0.7396948933601379,
        -0.7071070671081543,
        -0.7396953105926514
      ],
      "type": "VEC3"
    },
    {
      "bufferView": 1,
      "byteOffset": 5883528,
      "componentType": 5126,
      "count": 112,
      "max": [
        0.9956616163253784,
        0.9956642985343933
      ],
      "min": [
        0.004326043650507927,
        0.004328489303588867
      ],
      "type": "VEC2"
    },
    {
      "bufferView": 0,
      "byteOffset": 3092472,
      "componentType": 5125,
      "count": 420,
      "type": "SCALAR"
    }
  ],
  "asset": {
    "extras": {
      "author": "art.piskov (https://sketchfab.com/art.piskov)",
      "license": "CC-BY-4.0 (http://creativecommons.org/licenses/by/4.0/)",
      "source": "https://sketchfab.com/3d-models/ssm14-61dc688d4df34aedb00b46d52445632d",
      "title": "SSM14"
    },
    "generator": "Sketchfab-14.41.0",
    "version": "2.0"
  },
  "bufferViews": [
    {
      "buffer": 0,
      "byteLength": 3094152,
      "name": "floatBufferViews",
      "target": 34963
    },
    {
      "buffer": 0,
      "byteLength": 5884424,
      "byteOffset": 3094152,
      "byteStride": 8,
      "name": "floatBufferViews",
      "target": 34962
    },
    {
      "buffer": 0,
      "byteLength": 17653272,
      "byteOffset": 8978576,
      "byteStride": 12,
      "name": "floatBufferViews",
      "target": 34962
    }
  ],
  "buffers": [
    {
      "byteLength": 26631848,
      "uri": "scene.bin"
    }
  ],
  "extensionsUsed": [
    "KHR_materials_transmission"
  ],
  "images": [
    {
      "uri": "textures/M_SSM14_01_baseColor.png"
    },
    {
      "uri": "textures/M_SSM14_02_baseColor.png"
    },
    {
      "uri": "textures/M_WindowsBack_baseColor.png"
    }
  ],
  "materials": [
    {
      "doubleSided": true,
      "name": "M_SSM14_01",
      "pbrMetallicRoughness": {
        "baseColorTexture": {
          "index": 0
        },
        "metallicFactor": 0.0,
        "roughnessFactor": 0.552786
      }
    },
    {
      "doubleSided": true,
      "name": "M_SSM14_02",
      "pbrMetallicRoughness": {
        "baseColorTexture": {
          "index": 1
        },
        "metallicFactor": 0.0,
        "roughnessFactor": 0.552786
      }
    },
    {
      "alphaMode": "BLEND",
      "doubleSided": true,
      "extensions": {
        "KHR_materials_transmission": {
          "transmissionFactor": 1.0
        }
      },
      "name": "M_GlassTrans",
      "pbrMetallicRoughness": {
        "baseColorFactor": [
          0.296511,
          0.296511,
          0.296511,
          0.25
        ],
        "metallicFactor": 0.222727,
        "roughnessFactor": 0.0
      }
    },
    {
      "doubleSided": true,
      "name": "M_WindowsBack",
      "pbrMetallicRoughness": {
        "baseColorTexture": {
          "index": 2
        },
        "metallicFactor": 0.0,
        "roughnessFactor": 0.5
      }
    }
  ],
  "meshes": [
    {
      "name": "Object_0",
      "primitives": [
        {
          "attributes": {
            "NORMAL": 1,
            "POSITION": 0,
            "TEXCOORD_0": 2
          },
          "indices": 3,
          "material": 0,
          "mode": 4
        }
      ]
    },
    {
      "name": "Object_1",
      "primitives": [
        {
          "attributes": {
            "NORMAL": 5,
            "POSITION": 4,
            "TEXCOORD_0": 6
          },
          "indices": 7,
          "material": 0,
          "mode": 4
        }
      ]
    },
    {
      "name": "Object_2",
      "primitives": [
        {
          "attributes": {
            "NORMAL": 9,
            "POSITION": 8,
            "TEXCOORD_0": 10
          },
          "indices": 11,
          "material": 0,
          "mode": 4
        }
      ]
    },
    {
      "name": "Object_3",
      "primitives": [
        {
          "attributes": {
            "NORMAL": 13,
            "POSITION": 12,
            "TEXCOORD_0": 14
          },
          "indices": 15,
          "material": 0,
          "mode": 4
        }
      ]
    },
    {
      "name": "Object_4",
      "primitives": [
        {
          "attributes": {
            "NORMAL": 17,
            "POSITION": 16,
            "TEXCOORD_0": 18
          },
          "indices": 19,
          "material": 1,
          "mode": 4
        }
      ]
    },
    {
      "name": "Object_5",
      "primitives": [
        {
          "attributes": {
            "NORMAL": 21,
            "POSITION": 20,
            "TEXCOORD_0": 22
          },
          "indices": 23,
          "material": 1,
          "mode": 4
        }
      ]
    },
    {
      "name": "Object_6",
      "primitives": [
        {
          "attributes": {
            "NORMAL": 25,
            "POSITION": 24,
            "TEXCOORD_0": 26
          },
          "indices": 27,
          "material": 1,
          "mode": 4
        }
      ]
    },
    {
      "name": "Object_7",
      "primitives": [
        {
          "attributes": {
            "NORMAL": 29,
            "POSITION": 28,
            "TEXCOORD_0": 30
          },
          "indices": 31,
          "material": 1,
          "mode": 4
        }
      ]
    },
    {
      "name": "Object_8",
      "primitives": [
        {
          "attributes": {
            "NORMAL": 33,
            "POSITION": 32,
            "TEXCOORD_0": 34
          },
          "indices": 35,
          "material": 1,
          "mode": 4
        }
      ]
    },
    {
      "name": "Object_9",
      "primitives": [
        {
          "attributes": {
            "NORMAL": 37,
            "POSITION": 36,
            "TEXCOORD_0": 38
          },
          "indices": 39,
          "material": 1,
          "mode": 4
        }
      ]
    },
    {
      "name": "Object_10",
      "primitives": [
        {
          "attributes": {
            "NORMAL": 41,
            "POSITION": 40,
            "TEXCOORD_0": 42
          },
          "indices": 43,
          "material": 1,
          "mode": 4
        }
      ]
    },
    {
      "name": "Object_11",
      "primitives": [
        {
          "attributes": {
            "NORMAL": 45,
            "POSITION": 44,
            "TEXCOORD_0": 46
          },
          "indices": 47,
          "material": 1,
          "mode": 4
        }
      ]
    },
    {
      "name": "Object_12",
      "primitives": [
        {
          "attributes": {
            "NORMAL": 49,
            "POSITION": 48,
            "TEXCOORD_0": 50
          },
          "indices": 51,
          "material": 1,
          "mode": 4
        }
      ]
    },
    {
      "name": "Object_13",
      "primitives": [
        {
          "attributes": {
            "NORMAL": 53,
            "POSITION": 52,
            "TEXCOORD_0": 54
          },
          "indices": 55,
          "material": 2,
          "mode": 4
        }
      ]
    },
    {
      "name": "Object_14",
      "primitives": [
        {
          "attributes": {
            "NORMAL": 57,
            "POSITION": 56,
            "TEXCOORD_0": 58
          },
          "indices": 59,
          "material": 3,
          "mode": 4
        }
      ]
    }
  ],
  "nodes": [
    {
      "children": [
        1
      ],
      "matrix": [
        1.0,
        0.0,
        0.0,
        0.0,
        0.0,
        2.220446049250313e-16,
        -1.0,
        0.0,
        0.0,
        1.0,
        2.220446049250313e-16,
        0.0,
        0.0,
        0.0,
        0.0,
        1.0
      ],
      "name": "Sketchfab_model"
    },
    {
      "children": [
        2
      ],
      "name": "root"
    },
    {
      "children": [
        3
      ],
      "matrix": [
        1.0,
        0.0,
        0.0,
        0.0,
        0.0,
        2.220446049250313e-16,
        1.0,
        0.0,
        0.0,
        -1.0,
        2.220446049250313e-16,
        0.0,
        0.0,
        0.0,
        0.0,
        1.0
      ],
      "name": "GLTF_SceneRootNode"
    },
    {
      "children": [
        4,
        5,
        6,
        7,
        8,
        9,
        10,
        11,
        12,
        13,
        14,
        15,
        16,
        17,
        18
      ],
      "name": "SSM14_0"
    },
    {
      "mesh": 0,
      "name": "Object_4"
    },
    {
      "mesh": 1,
      "name": "Object_5"
    },
    {
      "mesh": 2,
      "name": "Object_6"
    },
    {
      "mesh": 3,
      "name": "Object_7"
    },
    {
      "mesh": 4,
      "name": "Object_8"
    },
    {
      "mesh": 5,
      "name": "Object_9"
    },
    {
      "mesh": 6,
      "name": "Object_10"
    },
    {
      "mesh": 7,
      "name": "Object_11"
    },
    {
      "mesh": 8,
      "name": "Object_12"
    },
    {
      "mesh": 9,
      "name": "Object_13"
    },
    {
      "mesh": 10,
      "name": "Object_14"
    },
    {
      "mesh": 11,
      "name": "Object_15"
    },
    {
      "mesh": 12,
      "name": "Object_16"
    },
    {
      "mesh": 13,
      "name": "Object_17"
    },
    {
      "mesh": 14,
      "name": "Object_18"
    }
  ],
  "samplers": [
    {
      "magFilter": 9729,
      "minFilter": 9987,
      "wrapS": 10497,
      "wrapT": 10497
    }
  ],
  "scene": 0,
  "scenes": [
    {
      "name": "Sketchfab_Scene",
      "nodes": [
        0
      ]
    }
  ],
  "textures": [
    {
      "sampler": 0,
      "source": 0
    },
    {
      "sampler": 0,
      "source": 1
    },
    {
      "sampler": 0,
      "source": 2
    }
  ]
}
