{
  "accessors": [
    {
      "bufferView": 2,
      "componentType": 5126,
      "count": 65532,
      "max": [
        3.9715428352355957,
        3.9746477603912354,
        1.421994686126709
      ],
      "min": [
        -4.178858757019043,
        1.1859582662582397,
        -1.4219937324523926
      ],
      "type": "VEC3"
    },
    {
      "bufferView": 2,
      "byteOffset": 786384,
      "componentType": 5126,
      "count": 65532,
      "max": [
        1.0,
        1.0,
        1.0
      ],
      "min": [
        -1.0,
        -1.0,
        -1.0
      ],
      "type": "VEC3"
    },
    {
      "bufferView": 1,
      "componentType": 5126,
      "count": 65532,
      "max": [
        0.9991317987442017,
        0.9990234375
      ],
      "min": [
        0.0009047805797308683,
        0.00023293495178222656
      ],
      "type": "VEC2"
    },
    {
      "bufferView": 0,
      "componentType": 5125,
      "count": 186123,
      "type": "SCALAR"
    },
    {
      "bufferView": 2,
      "byteOffset": 1572768,
      "componentType": 5126,
      "count": 9307,
      "max": [
        3.726991891860962,
        4.005686283111572,
        1.4366912841796875
      ],
      "min": [
        -4.166540145874023,
        1.3019319772720337,
        -1.436690330505371
      ],
      "type": "VEC3"
    },
    {
      "bufferView": 2,
      "byteOffset": 1684452,
      "componentType": 5126,
      "count": 9307,
      "max": [
        1.0,
        1.0,
        1.0
      ],
      "min": [
        -1.0,
        -1.0,
        -1.0
      ],
      "type": "VEC3"
    },
    {
      "bufferView": 1,
      "byteOffset": 524256,
      "componentType": 5126,
      "count": 9307,
      "max": [
        0.9950180649757385,
        0.99853515625
      ],
      "min": [
        0.011554115451872349,
        0.0015322566032409668
      ],
      "type": "VEC2"
    },
    {
      "bufferView": 0,
      "byteOffset": 744492,
      "componentType": 5125,
      "count": 31515,
      "type": "SCALAR"
    },
    {
      "bufferView": 2,
      "byteOffset": 1796136,
      "componentType": 5126,
      "count": 65532,
      "max": [
        4.186069011688232,
        1.688519835472107,
        1.2380239963531494
      ],
      "min": [
        -4.172664642333984,
        -0.03275376930832863,
        -1.2806748151779175
      ],
      "type": "VEC3"
    },
    {
      "bufferView": 2,
      "byteOffset": 2582520,
      "componentType": 5126,
      "count": 65532,
      "max": [
        1.0,
        1.0,
        1.0
      ],
      "min": [
        -1.0,
        -1.0,
        -1.0
      ],
      "type": "VEC3"
    },
    {
      "bufferView": 1,
      "byteOffset": 598712,
      "componentType": 5126,
      "count": 65532,
      "max": [
        0.9983007907867432,
        0.99853515625
      ],
      "min": [
        0.00146484375,
        0.0015972256660461426
      ],
      "type": "VEC2"
    },
    {
      "bufferView": 0,
      "byteOffset": 870552,
      "componentType": 5125,
      "count": 163134,
      "type": "SCALAR"
    },
    {
      "bufferView": 2,
      "byteOffset": 3368904,
      "componentType": 5126,
      "count": 65532,
      "max": [
        4.229587554931641,
        1.7893853187561035,
        1.3843075037002563
      ],
      "min": [
        -4.216182708740234,
        0.015553931705653667,
        -1.3843070268630981
      ],
      "type": "VEC3"
    },
    {
      "bufferView": 2,
      "byteOffset": 4155288,
      "componentType": 5126,
      "count": 65532,
      "max": [
        1.0,
        1.0,
        1.0
      ],
      "min": [
        -1.0,
        -1.0,
        -1.0
      ],
      "type": "VEC3"
    },
    {
      "bufferView": 1,
      "byteOffset": 1122968,
      "componentType": 5126,
      "count": 65532,
      "max": [
        0.99853515625,
        0.99853515625
      ],
      "min": [
        0.00146484375,
        0.0015372633934020996
      ],
      "type": "VEC2"
    },
    {
      "bufferView": 0,
      "byteOffset": 1523088,
      "componentType": 5125,
      "count": 191700,
      "type": "SCALAR"
    },
    {
      "bufferView": 2,
      "byteOffset": 4941672,
      "componentType": 5126,
      "count": 20856,
      "max": [
        4.52478551864624,
        1.386336326599121,
        1.3153817653656006
      ],
      "min": [
        -4.51138162612915,
        -0.03275364264845848,
        -1.3153804540634155
      ],
      "type": "VEC3"
    },
    {
      "bufferView": 2,
      "byteOffset": 5191944,
      "componentType": 5126,
      "count": 20856,
      "max": [
        1.0,
        1.0,
        1.0
      ],
      "min": [
        -1.0,
        -1.0,
        -1.0
      ],
      "type": "VEC3"
    },
    {
      "bufferView": 1,
      "byteOffset": 1647224,
      "componentType": 5126,
      "count": 20856,
      "max": [
        0.9959323406219482,
        0.99853515625
      ],
      "min": [
        0.0011471651960164309,
        0.004282355308532715
      ],
      "type": "VEC2"
    },
    {
      "bufferView": 0,
      "byteOffset": 2289888,
      "componentType": 5125,
      "count": 68919,
      "type": "SCALAR"
    },
    {
      "bufferView": 2,
      "byteOffset": 5442216,
      "componentType": 5126,
      "count": 2183,
      "max": [
        3.7193760871887207,
        4.00096321105957,
        1.3961466550827026
      ],
      "min": [
        -4.15893030166626,
        1.5058552026748657,
        -1.3961457014083862
      ],
      "type": "VEC3"
    },
    {
      "bufferView": 2,
      "byteOffset": 5468412,
      "componentType": 5126,
      "count": 2183,
      "max": [
        1.0,
        1.0,
        1.0
      ],
      "min": [
        -1.0,
        -1.0,
        -1.0
      ],
      "type": "VEC3"
    },
    {
      "bufferView": 1,
      "byteOffset": 1814072,
      "componentType": 5126,
      "count": 2183,
      "max": [
        0.9950000047683716,
        0.9950000047683716
      ],
      "min": [
        0.004999999888241291,
        0.004999995231628418
      ],
      "type": "VEC2"
    },
    {
      "bufferView": 0,
      "byteOffset": 2565564,
      "componentType": 5125,
      "count": 7062,
      "type": "SCALAR"
    },
    {
      "bufferView": 2,
      "byteOffset": 5494608,
      "componentType": 5126,
      "count": 48,
      "max": [
        -1.528100609779358,
        3.2066736221313477,
        1.3178660869598389
      ],
      "min": [
        -3.712952136993408,
        2.439011573791504,
        -1.3176660537719727
      ],
      "type": "VEC3"
    },
    {
      "bufferView": 2,
      "byteOffset": 5495184,
      "componentType": 5126,
      "count": 48,
      "max": [
        0.70710688829422,
        0.70710688829422,
        0.7071069478988647
      ],
      "min": [
        -0.7071068286895752,
        -0.70710688829422,
        -0.7071069478988647
      ],
      "type": "VEC3"
    },
    {
      "bufferView": 1,
      "byteOffset": 1831536,
      "componentType": 5126,
      "count": 48,
      "max": [
        0.9956616163253784,
        0.9956642985343933
      ],
      "min": [
        0.004326043650507927,
        0.004328489303588867
      ],
      "type": "VEC2"
    },
    {
      "bufferView": 0,
      "byteOffset": 2593812,
      "componentType": 5125,
      "count": 180,
      "type": "SCALAR"
    }
  ],
  "asset": {
    "extras": {
      "author": "art.piskov (https://sketchfab.com/art.piskov)",
      "license": "CC-BY-4.0 (http://creativecommons.org/licenses/by/4.0/)",
      "source": "https://sketchfab.com/3d-models/lgfghjkjhg-c0c3827e51a24c209105888c4a692a96",
      "title": "lgfghjkjhg"
    },
    "generator": "Sketchfab-14.41.0",
    "version": "2.0"
  },
  "bufferViews": [
    {
      "buffer": 0,
      "byteLength": 2594532,
      "name": "floatBufferViews",
      "target": 34963
    },
    {
      "buffer": 0,
      "byteLength": 1831920,
      "byteOffset": 2594532,
      "byteStride": 8,
      "name": "floatBufferViews",
      "target": 34962
    },
    {
      "buffer": 0,
      "byteLength": 5495760,
      "byteOffset": 4426452,
      "byteStride": 12,
      "name": "floatBufferViews",
      "target": 34962
    }
  ],
  "buffers": [
    {
      "byteLength": 9922212,
      "uri": "scene.bin"
    }
  ],
  "extensionsUsed": [
    "KHR_materials_transmission"
  ],
  "images": [
    {
      "uri": "textures/M_FIRELESS-9305_01_baseColor.png"
    },
    {
      "uri": "textures/M_FIRELESS-9305_02_baseColor.png"
    },
    {
      "uri": "textures/M_WindowsBack_baseColor.png"
    }
  ],
  "materials": [
    {
      "doubleSided": true,
      "name": "M_FIRELESS-9305_01",
      "pbrMetallicRoughness": {
        "baseColorTexture": {
          "index": 0
        },
        "metallicFactor": 0.0,
        "roughnessFactor": 0.552786
      }
    },
    {
      "doubleSided": true,
      "name": "M_FIRELESS-9305_02",
      "pbrMetallicRoughness": {
        "baseColorTexture": {
          "index": 1
        },
        "metallicFactor": 0.0,
        "roughnessFactor": 0.552786
      }
    },
    {
      "alphaMode": "BLEND",
      "doubleSided": true,
      "extensions": {
        "KHR_materials_transmission": {
          "transmissionFactor": 1.0
        }
      },
      "name": "M_GlassTrans",
      "pbrMetallicRoughness": {
        "baseColorFactor": [
          0.296511,
          0.296511,
          0.296511,
          0.25
        ],
        "metallicFactor": 0.222727,
        "roughnessFactor": 0.0
      }
    },
    {
      "doubleSided": true,
      "name": "M_WindowsBack",
      "pbrMetallicRoughness": {
        "baseColorTexture": {
          "index": 2
        },
        "metallicFactor": 0.0,
        "roughnessFactor": 0.5
      }
    }
  ],
  "meshes": [
    {
      "name": "Object_0",
      "primitives": [
        {
          "attributes": {
            "NORMAL": 1,
            "POSITION": 0,
            "TEXCOORD_0": 2
          },
          "indices": 3,
          "material": 0,
          "mode": 4
        }
      ]
    },
    {
      "name": "Object_1",
      "primitives": [
        {
          "attributes": {
            "NORMAL": 5,
            "POSITION": 4,
            "TEXCOORD_0": 6
          },
          "indices": 7,
          "material": 0,
          "mode": 4
        }
      ]
    },
    {
      "name": "Object_2",
      "primitives": [
        {
          "attributes": {
            "NORMAL": 9,
            "POSITION": 8,
            "TEXCOORD_0": 10
          },
          "indices": 11,
          "material": 1,
          "mode": 4
        }
      ]
    },
    {
      "name": "Object_3",
      "primitives": [
        {
          "attributes": {
            "NORMAL": 13,
            "POSITION": 12,
            "TEXCOORD_0": 14
          },
          "indices": 15,
          "material": 1,
          "mode": 4
        }
      ]
    },
    {
      "name": "Object_4",
      "primitives": [
        {
          "attributes": {
            "NORMAL": 17,
            "POSITION": 16,
            "TEXCOORD_0": 18
          },
          "indices": 19,
          "material": 1,
          "mode": 4
        }
      ]
    },
    {
      "name": "Object_5",
      "primitives": [
        {
          "attributes": {
            "NORMAL": 21,
            "POSITION": 20,
            "TEXCOORD_0": 22
          },
          "indices": 23,
          "material": 2,
          "mode": 4
        }
      ]
    },
    {
      "name": "Object_6",
      "primitives": [
        {
          "attributes": {
            "NORMAL": 25,
            "POSITION": 24,
            "TEXCOORD_0": 26
          },
          "indices": 27,
          "material": 3,
          "mode": 4
        }
      ]
    }
  ],
  "nodes": [
    {
      "children": [
        1
      ],
      "matrix": [
        1.0,
        0.0,
        0.0,
        0.0,
        0.0,
        2.220446049250313e-16,
        -1.0,
        0.0,
        0.0,
        1.0,
        2.220446049250313e-16,
        0.0,
        0.0,
        0.0,
        0.0,
        1.0
      ],
      "name": "Sketchfab_model"
    },
    {
      "children": [
        2
      ],
      "name": "root"
    },
    {
      "children": [
        3
      ],
      "matrix": [
        1.0,
        0.0,
        0.0,
        0.0,
        0.0,
        2.220446049250313e-16,
        1.0,
        0.0,
        0.0,
        -1.0,
        2.220446049250313e-16,
        0.0,
        0.0,
        0.0,
        0.0,
        1.0
      ],
      "name": "GLTF_SceneRootNode"
    },
    {
      "children": [
        4,
        5,
        6,
        7,
        8,
        9,
        10
      ],
      "name": "FIRELESS-9305_0"
    },
    {
      "mesh": 0,
      "name": "Object_4"
    },
    {
      "mesh": 1,
      "name": "Object_5"
    },
    {
      "mesh": 2,
      "name": "Object_6"
    },
    {
      "mesh": 3,
      "name": "Object_7"
    },
    {
      "mesh": 4,
      "name": "Object_8"
    },
    {
      "mesh": 5,
      "name": "Object_9"
    },
    {
      "mesh": 6,
      "name": "Object_10"
    }
  ],
  "samplers": [
    {
      "magFilter": 9729,
      "minFilter": 9987,
      "wrapS": 10497,
      "wrapT": 10497
    }
  ],
  "scene": 0,
  "scenes": [
    {
      "name": "Sketchfab_Scene",
      "nodes": [
        0
      ]
    }
  ],
  "textures": [
    {
      "sampler": 0,
      "source": 0
    },
    {
      "sampler": 0,
      "source": 1
    },
    {
      "sampler": 0,
      "source": 2
    }
  ]
}
